<svg width="448" height="204" viewBox="0 0 448 204" fill="none" xmlns="http://www.w3.org/2000/svg">
<g filter="url(#filter0_n_6805_549)">
<g clip-path="url(#clip0_6805_549)">
<rect width="448" height="204" rx="14" fill="#101624"/>
<path d="M349.897 -24V17.7469L336.107 3.9573V-24H335.854L335.897 -23.957V3.74625L322.108 -10.0434V-24H321.898V-10.0434L308.108 3.74625V-24H223.897V-10.0434L210.107 3.74625V-24H209.854L196.108 -10.2534V-24H195.898V-10.0434L182.108 3.74625V-24H98V18.105H139.747L125.958 31.8946H98V32.1477L98.0431 32.1046H125.746L111.957 45.8943H98V46.1043H111.957L125.746 59.8939H98V60.1039H125.746L111.957 73.8936H98V74.1036H111.747L98 87.8512V88.1043H125.746L111.957 101.894H98V227.999H182.106V200.253L195.895 214.042V227.999H196.105V214.042L209.895 200.253V227.956L209.852 227.999H210.105V200.043L223.895 186.253V228H308.106V214.043L308.149 214L308.106 213.957V200.254L321.895 214.043V228H322.105V214.253L335.852 228H336.105V200.254L349.895 214.043V228H350V101.895H308.253L322.042 88.1054H349.999V87.8523L349.956 87.8953H322.252L336.042 74.1057H349.999V73.8957H336.042L322.252 60.106H349.999V59.896H322.252L336.042 46.1064H349.999V45.8964H336.252L349.999 32.1498V31.8967H322.252L336.042 18.1071H349.999V-24H349.894H349.897ZM322.002 -9.85125L335.896 4.0434V17.895H308.106V4.0434L322 -9.85125H322.002ZM336.106 4.2534L349.748 17.895H336.106V4.2534ZM252.045 213.895L238.255 200.106H265.958L279.748 213.895H252.045ZM196.255 185.895L210.044 172.105H237.958L251.748 185.895H196.255ZM167.957 213.895H140.253L154.043 200.106H181.747L167.957 213.895ZM112.105 130.043L125.895 116.254V143.957L112.105 157.747V130.043ZM139.746 102.105L126.105 115.747V102.105H139.746ZM140.105 73.9566V46.0434L153.895 32.2537V87.9573L140.105 101.747V74.0437L140.148 74.0007L140.105 73.9576V73.9566ZM181.748 3.89535H154.044L140.254 -9.8943H167.958L181.748 3.89535ZM238.045 -9.8943H265.748L251.959 3.89535H224.255L238.045 -9.8943ZM307.959 116.106L321.748 129.895H294.045L280.255 116.106H307.959ZM293.854 130L279.959 143.895H266.107V116.105H279.959L293.854 129.999V130ZM307.898 200.044V213.747L280.256 186.106H307.898V199.958L307.855 200.001L307.898 200.044ZM252.046 185.895L238.151 172L252.046 158.106H265.897V185.896H252.046V185.895ZM237.959 171.895H210.255L224.045 158.106H251.749L237.959 171.895ZM126.045 199.896L112.255 186.106H167.748L153.958 199.896H126.045ZM139.896 158.254V185.895H112.255L139.896 158.254ZM224.106 4.2534L237.748 17.895H224.106V4.2534ZM279.958 4.10535L293.748 17.895H238.255L252.045 4.10535H279.958ZM307.897 46.0434V73.9566L294.107 87.7462V32.0427L307.897 18.253V45.9562L307.854 45.9993L307.897 46.0424V46.0434ZM252.255 157.895L265.896 144.253V157.895H252.255ZM196.255 157.895L210.044 144.105H224.106H265.748L251.959 157.895H196.255ZM168.106 185.895V172.253L181.748 185.895H168.106ZM181.896 186.105V199.747L168.254 186.105H181.896ZM167.896 185.895H140.105V172.043L154 158.149L167.895 172.043V185.895H167.896ZM168.106 46.0434L181.896 32.2537V59.895V87.7462L168.106 73.9566V46.0434ZM196.002 18.148L196.045 18.105H237.958L251.748 31.8946H196.044L182.254 18.105H195.957L196 18.148H196.002ZM280.107 101.746V74.0427L293.897 60.253V87.9562L280.107 101.746ZM153.896 157.956L140.106 171.745V116.252L153.896 130.041V157.954V157.956ZM153.748 102.104L140.106 115.746V102.104H153.748ZM140.151 115.999L153.897 102.252V129.745L140.151 115.999ZM182.108 101.894V74.2527L195.898 88.0423V115.956L182.108 129.745V101.894ZM195.75 31.8936H182.108V18.252L195.75 31.8936ZM182.108 32.1036H195.96L209.854 45.9983L195.96 59.8929H182.108V32.1025V32.1036ZM279.898 73.9555L266.109 87.7452V46.0424L266.152 45.9993L266.109 45.9562V32.2527L279.898 46.0424V73.9555ZM279.898 101.746L266.152 87.9993L279.898 74.2527V101.746ZM265.898 143.746L252.109 129.956V74.2527L265.855 87.9993L265.898 88.0423V101.894V143.745V143.746ZM210.046 46.1043H237.96L251.75 59.8939H238.047L238.004 59.8509L237.961 59.8939H223.899H196.258L210.047 46.1043H210.046ZM251.899 101.746L238.109 87.9562V60.253L251.899 74.0427V101.746ZM210.108 74.0427L223.898 60.253V73.9555L223.855 73.9986L223.898 74.0416V101.998V115.954L210.108 129.744V74.0406V74.0427ZM223.75 60.1039L210.108 73.7455V60.1039H223.75ZM223.898 116.253V143.894H196.257L223.898 116.253ZM224.108 60.1039H237.75L224.108 73.7455V60.1039ZM237.898 60.252V87.7452L224.151 73.9986L237.898 60.252ZM238.257 60.1039H251.96L252.003 60.147L252.046 60.1039H265.897V87.7452L238.256 60.1039H238.257ZM252.257 59.8939L265.898 46.2523V59.8939H252.257ZM252.003 59.8509L238.256 46.1043H265.749L252.003 59.8509ZM209.897 60.1039V73.9555L196.003 87.8502L182.108 73.9555V60.1039H209.898H209.897ZM196.108 88.0423L209.897 74.2527V101.956L196.108 115.746V88.0423ZM209.897 102.252V129.955L196.108 143.745V116.042L209.897 102.252ZM195.898 143.745L182.151 129.998L195.898 116.252V143.745ZM195.75 143.893H182.108V130.251L195.75 143.893ZM224.108 101.998V74.2516L237.898 88.0413V115.954L224.108 129.744V101.998ZM238.108 88.2513L251.898 102.041V129.744L238.108 115.954V88.2513ZM265.898 18.1029V45.7441L238.257 18.1029H265.898ZM265.75 45.8932H238.047L224.257 32.1036H251.961L265.75 45.8932ZM223.96 32.1036L237.75 45.8932H210.046L196.257 32.1036H223.96ZM224.108 130.042L238.003 116.148L251.898 130.042V143.894H224.107V130.042H224.108ZM252.109 130.252L265.75 143.894H252.109V130.252ZM266.109 88.2523L279.75 101.894H266.109V88.2523ZM293.899 59.9548L280.109 73.7445V46.0413L293.899 32.2516V59.9548ZM280.004 45.8502L266.11 31.9555V18.1039H293.9V31.9555L280.005 45.8502H280.004ZM181.899 31.7455L168.257 18.1039H181.899V31.7455ZM168.109 18.253L181.856 31.9996L168.109 45.7462V18.253ZM154.109 157.956V130.252L167.899 144.042V171.745L154.109 157.956ZM167.899 143.746L154.109 129.956V102.253L167.899 116.043V143.746ZM154.257 102.104H181.899V129.745L154.257 102.104ZM195.961 144.104L196.004 144.147L196.047 144.104H209.749L182.108 171.745V144.104H195.96H195.961ZM280.258 101.894L307.9 74.2527V101.894H280.258ZM294.11 31.7455V18.1039H307.752L294.11 31.7455ZM238.005 17.8509L224.258 4.1043H251.752L238.005 17.8509ZM168.258 17.8939L181.9 4.25235V17.8939H168.258ZM168.005 17.8509L154.258 4.1043H181.752L168.005 17.8509ZM167.752 18.1039L140.111 45.7452V18.1039H167.752ZM167.9 18.252V45.9552L154.11 59.7449V32.0416L167.9 18.252ZM154.11 60.042L167.9 46.2523V73.9555L154.11 87.7452V60.042ZM168.005 74.1466L181.9 88.0413V101.893H154.109V88.0413L168.004 74.1466H168.005ZM153.9 101.893H140.259L153.9 88.2513V101.893ZM168.005 186.146L181.752 199.893H154.258L168.005 186.146ZM168.11 171.954V116.252L181.857 129.998L181.9 130.041V144.103V171.954L181.857 171.997L181.9 172.04V185.744L168.11 171.954ZM182.259 171.892L196.049 158.103H223.752L209.962 171.892H182.259ZM209.752 172.102L196.006 185.849L182.259 172.102H209.752ZM266.112 185.892V158.251L293.753 185.892H266.112ZM266.26 158.102H293.963L307.753 171.891H280.049L266.26 158.102ZM266.26 157.891L280.006 144.145L293.753 157.891H266.26ZM266.112 157.743V144.102H279.753L266.112 157.743ZM266.112 115.891V102.25L279.753 115.891H266.112ZM307.897 -10.1054H294.255L307.897 -23.747V-10.1054ZM307.897 -9.89535V17.895H294.045L280.15 4.00035L294.045 -9.8943H307.897V-9.89535ZM279.958 3.8943H252.255L266.044 -9.89535H293.748L279.958 3.8943ZM182.106 17.8939V4.25235L195.747 17.8939H182.106ZM139.957 -9.89535L153.747 3.8943H126.044L112.254 -9.89535H139.957ZM126.044 4.1043H153.957L167.747 17.8939H112.254L126.044 4.1043ZM139.895 102.253V115.957L139.852 116L139.895 116.043V157.956L126.106 171.745V116.042L139.895 102.252V102.253ZM125.896 144.253V171.956L112.106 185.746V158.043L125.896 144.253ZM111.896 185.746L98.1481 172L111.895 158.254V185.747L111.896 185.746ZM125.853 200L111.958 213.894H98.105V186.104H111.957L125.851 199.999L125.853 200ZM126.045 200.105H153.748L139.958 213.894H112.254L126.044 200.105H126.045ZM182.107 172.253L195.748 185.895H182.107V172.253ZM224.107 186.253L237.749 199.895H224.107V186.253ZM224.255 186.105H265.897H279.959L293.749 199.895H238.046L224.256 186.105H224.255ZM266.256 200.105H293.959L307.749 213.894H280.045L266.256 200.105ZM307.749 214.104L294.002 227.851L280.255 214.104H307.749ZM322.046 185.894L322.003 185.851L321.96 185.894H294.046L280.256 172.104H335.96L349.75 185.894H322.047H322.046ZM308.046 171.894L294.256 158.105H321.96L335.749 171.894H308.046ZM321.96 157.895H294.046L280.256 144.105H335.749L321.96 157.895ZM280.256 143.895L294.046 130.105H321.96L335.749 143.895H280.255H280.256ZM322.257 130.105H349.75L336.003 143.852L322.257 130.105ZM322.047 129.895L308.257 116.106H335.96L349.75 129.895H322.047ZM280.046 115.896L266.257 102.106H279.96L280.003 102.149L280.046 102.106H321.96L335.749 115.896H280.046ZM293.96 -10.1043H238.256L252.045 -23.895H307.749L293.959 -10.1054L293.96 -10.1043ZM251.748 -23.895L224.106 3.74625V-23.895H251.748ZM223.896 3.95625L223.853 3.9993L223.896 4.04235V17.8939H196.255L223.896 -9.7473V3.95625ZM209.896 -23.747V3.95625L196.107 17.7459V-9.95625L209.896 -23.747ZM195.897 -9.7473V17.7459L182.15 3.9993L195.897 -9.7473ZM181.896 -23.895V3.74625L154.254 -23.895H181.896ZM153.957 -23.895L167.747 -10.1054H112.044L98.2531 -23.895H153.956H153.957ZM111.747 -10.1054H98.105V-23.747L111.747 -10.1054ZM98.105 -9.89535H111.957L125.851 3.9993L111.957 17.8939H98.105V-9.89535ZM139.895 18.253V31.8946H126.254L139.895 18.253ZM126.044 32.1046H139.895V59.895H126.044L126.001 59.852L112.149 46.0003L126.044 32.1057V32.1046ZM139.895 60.105V73.7466L126.254 60.105H139.895ZM126.001 60.148L139.747 73.8946H112.254L126.001 60.148ZM98.2531 87.8953L112.043 74.1057H139.746L125.956 87.8953H98.2531ZM139.895 74.2537V101.895H112.254L139.895 74.2537ZM125.896 102.105V115.957L112.001 129.851L98.105 115.957V102.105H125.896ZM98.105 116.254L111.895 130.043V157.957L98.105 171.746V116.253V116.254ZM111.747 185.895H98.105V172.253L111.747 185.895ZM98.105 214.105H111.747L98.105 227.747V214.105ZM112.044 214.105H167.747L153.957 227.895H98.2531L112.043 214.105H112.044ZM154.254 227.895L181.896 200.254V227.895H154.254ZM196.002 213.851L182.15 200L182.107 199.957V186.105H195.958L196.002 186.148L196.045 186.105H209.896V199.957L196.002 213.851ZM210.106 186.105H223.748L210.106 199.747V186.105ZM224.106 200.105H237.958L251.853 213.999L237.958 227.894H224.106V200.104V200.105ZM238.255 227.895L252.045 214.105H279.958L293.748 227.895H238.254H238.255ZM294.255 227.895L307.897 214.253V227.895H294.255ZM308.107 186.105H321.748L308.107 199.747V186.105ZM308.15 200L321.897 186.253V213.746L308.15 200ZM335.896 227.746L322.107 213.956V186.253L335.896 200.043V227.746ZM349.896 213.746L322.255 186.105H349.896V213.746ZM349.896 185.747L336.254 172.105H349.896V185.747ZM336.044 171.895L322.15 158.001L336.044 144.106H349.896V171.896H336.044V171.895ZM349.896 143.895H336.254L349.896 130.253V143.895ZM322.255 102.105H349.896V129.746L322.255 102.105ZM308.106 101.746V88.1043H321.747L308.106 101.746ZM321.957 87.8943H308.106V60.1039H321.957L322 60.147L335.852 73.9986L321.957 87.8932V87.8943ZM308.106 59.8939V46.2523L321.747 59.8939H308.106ZM322 59.8509L308.254 46.1043H335.747L322 59.8509ZM349.747 32.1046L335.957 45.8943H308.254L322.044 32.1046H349.747ZM308.105 45.7462V18.105H335.746L308.105 45.7462Z" fill="url(#paint0_radial_6805_549)"/>
</g>
<rect x="0.5" y="0.5" width="447" height="203" rx="13.5" stroke="#1E2537"/>
</g>
<defs>
<filter id="filter0_n_6805_549" x="0" y="0" width="448" height="204" filterUnits="userSpaceOnUse" color-interpolation-filters="sRGB">
<feFlood flood-opacity="0" result="BackgroundImageFix"/>
<feBlend mode="normal" in="SourceGraphic" in2="BackgroundImageFix" result="shape"/>
<feTurbulence type="fractalNoise" baseFrequency="2 2" stitchTiles="stitch" numOctaves="3" result="noise" seed="5784" />
<feColorMatrix in="noise" type="luminanceToAlpha" result="alphaNoise" />
<feComponentTransfer in="alphaNoise" result="coloredNoise1">
<feFuncA type="discrete" tableValues="0 0 0 0 0 0 0 0 0 0 0 0 0 1 1 1 1 1 1 1 1 1 1 1 1 1 1 1 1 1 1 1 1 1 1 1 0 0 0 0 0 0 0 0 0 0 0 0 0 0 0 0 0 0 0 0 0 0 0 0 0 0 0 0 0 0 0 0 0 0 0 0 0 0 0 0 0 0 0 0 0 0 0 0 0 0 0 0 0 0 0 0 0 0 0 0 0 0 0 0 "/>
</feComponentTransfer>
<feComposite operator="in" in2="shape" in="coloredNoise1" result="noise1Clipped" />
<feFlood flood-color="#2D354A" result="color1Flood" />
<feComposite operator="in" in2="noise1Clipped" in="color1Flood" result="color1" />
<feMerge result="effect1_noise_6805_549">
<feMergeNode in="shape" />
<feMergeNode in="color1" />
</feMerge>
</filter>
<radialGradient id="paint0_radial_6805_549" cx="0" cy="0" r="1" gradientUnits="userSpaceOnUse" gradientTransform="translate(220.269 102) scale(123.393 123.392)">
<stop stop-color="#4C5363"/>
<stop offset="1" stop-color="#2D354A" stop-opacity="0.1"/>
</radialGradient>
<clipPath id="clip0_6805_549">
<rect width="448" height="204" rx="14" fill="white"/>
</clipPath>
</defs>
</svg>
