<svg width="346" height="204" viewBox="0 0 346 204" fill="none" xmlns="http://www.w3.org/2000/svg">
<g filter="url(#filter0_n_6805_557)">
<g clip-path="url(#clip0_6805_557)">
<rect width="346" height="204" rx="14" fill="#0A0F1C"/>
<path d="M298.897 -24V17.7469L285.107 3.9573V-24H284.854L284.897 -23.957V3.74625L271.108 -10.0434V-24H270.898V-10.0434L257.108 3.74625V-24H172.897V-10.0434L159.107 3.74625V-24H158.854L145.108 -10.2534V-24H144.898V-10.0434L131.108 3.74625V-24H47V18.105H88.7473L74.9575 31.8946H47V32.1477L47.0431 32.1046H74.7465L60.9567 45.8943H47V46.1043H60.9567L74.7465 59.8939H47V60.1039H74.7465L60.9567 73.8936H47V74.1036H60.7467L47 87.8512V88.1043H74.7465L60.9567 101.894H47V227.999H131.106V200.253L144.895 214.042V227.999H145.105V214.042L158.895 200.253V227.956L158.852 227.999H159.105V200.043L172.895 186.253V228H257.106V214.043L257.149 214L257.106 213.957V200.254L270.895 214.043V228H271.105V214.253L284.852 228H285.105V200.254L298.895 214.043V228H299V101.895H257.253L271.042 88.1054H298.999V87.8523L298.956 87.8953H271.252L285.042 74.1057H298.999V73.8957H285.042L271.252 60.106H298.999V59.896H271.252L285.042 46.1064H298.999V45.8964H285.252L298.999 32.1498V31.8967H271.252L285.042 18.1071H298.999V-24H298.894H298.897ZM271.002 -9.85125L284.896 4.0434V17.895H257.106V4.0434L271 -9.85125H271.002ZM285.106 4.2534L298.748 17.895H285.106V4.2534ZM201.045 213.895L187.255 200.106H214.958L228.748 213.895H201.045ZM145.255 185.895L159.044 172.105H186.958L200.748 185.895H145.255ZM116.957 213.895H89.2534L103.043 200.106H130.747L116.957 213.895ZM61.1048 130.043L74.8945 116.254V143.957L61.1048 157.747V130.043ZM88.7462 102.105L75.1045 115.747V102.105H88.7462ZM89.1054 73.9566V46.0434L102.895 32.2537V87.9573L89.1054 101.747V74.0437L89.1484 74.0007L89.1054 73.9576V73.9566ZM130.748 3.89535H103.044L89.2545 -9.8943H116.958L130.748 3.89535ZM187.045 -9.8943H214.748L200.959 3.89535H173.255L187.045 -9.8943ZM256.959 116.106L270.748 129.895H243.045L229.255 116.106H256.959ZM242.854 130L228.959 143.895H215.107V116.105H228.959L242.854 129.999V130ZM256.898 200.044V213.747L229.256 186.106H256.898V199.958L256.855 200.001L256.898 200.044ZM201.046 185.895L187.151 172L201.046 158.106H214.897V185.896H201.046V185.895ZM186.959 171.895H159.255L173.045 158.106H200.749L186.959 171.895ZM75.0447 199.896L61.2549 186.106H116.748L102.958 199.896H75.0447ZM88.8964 158.254V185.895H61.2549L88.8964 158.254ZM173.106 4.2534L186.748 17.895H173.106V4.2534ZM228.958 4.10535L242.748 17.895H187.255L201.045 4.10535H228.958ZM256.897 46.0434V73.9566L243.107 87.7462V32.0427L256.897 18.253V45.9562L256.854 45.9993L256.897 46.0424V46.0434ZM201.255 157.895L214.896 144.253V157.895H201.255ZM145.255 157.895L159.044 144.105H173.106H214.748L200.959 157.895H145.255ZM117.106 185.895V172.253L130.748 185.895H117.106ZM130.896 186.105V199.747L117.254 186.105H130.896ZM116.896 185.895H89.1054V172.043L103 158.149L116.895 172.043V185.895H116.896ZM117.106 46.0434L130.896 32.2537V59.895V87.7462L117.106 73.9566V46.0434ZM145.002 18.148L145.045 18.105H186.958L200.748 31.8946H145.044L131.254 18.105H144.957L145 18.148H145.002ZM229.107 101.746V74.0427L242.897 60.253V87.9562L229.107 101.746ZM102.896 157.956L89.1064 171.745V116.252L102.896 130.041V157.954V157.956ZM102.748 102.104L89.1064 115.746V102.104H102.748ZM89.1505 115.999L102.897 102.252V129.745L89.1505 115.999ZM131.108 101.894V74.2527L144.898 88.0423V115.956L131.108 129.745V101.894ZM144.75 31.8936H131.108V18.252L144.75 31.8936ZM131.108 32.1036H144.96L158.854 45.9983L144.96 59.8929H131.108V32.1025V32.1036ZM228.898 73.9555L215.109 87.7452V46.0424L215.152 45.9993L215.109 45.9562V32.2527L228.898 46.0424V73.9555ZM228.898 101.746L215.152 87.9993L228.898 74.2527V101.746ZM214.898 143.746L201.109 129.956V74.2527L214.855 87.9993L214.898 88.0423V101.894V143.745V143.746ZM159.046 46.1043H186.96L200.75 59.8939H187.047L187.004 59.8509L186.961 59.8939H172.899H145.258L159.047 46.1043H159.046ZM200.899 101.746L187.109 87.9562V60.253L200.899 74.0427V101.746ZM159.108 74.0427L172.898 60.253V73.9555L172.855 73.9986L172.898 74.0416V101.998V115.954L159.108 129.744V74.0406V74.0427ZM172.75 60.1039L159.108 73.7455V60.1039H172.75ZM172.898 116.253V143.894H145.257L172.898 116.253ZM173.108 60.1039H186.75L173.108 73.7455V60.1039ZM186.898 60.252V87.7452L173.151 73.9986L186.898 60.252ZM187.257 60.1039H200.96L201.003 60.147L201.046 60.1039H214.897V87.7452L187.256 60.1039H187.257ZM201.257 59.8939L214.898 46.2523V59.8939H201.257ZM201.003 59.8509L187.256 46.1043H214.749L201.003 59.8509ZM158.897 60.1039V73.9555L145.003 87.8502L131.108 73.9555V60.1039H158.898H158.897ZM145.108 88.0423L158.897 74.2527V101.956L145.108 115.746V88.0423ZM158.897 102.252V129.955L145.108 143.745V116.042L158.897 102.252ZM144.898 143.745L131.151 129.998L144.898 116.252V143.745ZM144.75 143.893H131.108V130.251L144.75 143.893ZM173.108 101.998V74.2516L186.898 88.0413V115.954L173.108 129.744V101.998ZM187.108 88.2513L200.898 102.041V129.744L187.108 115.954V88.2513ZM214.898 18.1029V45.7441L187.257 18.1029H214.898ZM214.75 45.8932H187.047L173.257 32.1036H200.961L214.75 45.8932ZM172.96 32.1036L186.75 45.8932H159.046L145.257 32.1036H172.96ZM173.108 130.042L187.003 116.148L200.898 130.042V143.894H173.107V130.042H173.108ZM201.109 130.252L214.75 143.894H201.109V130.252ZM215.109 88.2523L228.75 101.894H215.109V88.2523ZM242.899 59.9548L229.109 73.7445V46.0413L242.899 32.2516V59.9548ZM229.004 45.8502L215.11 31.9555V18.1039H242.9V31.9555L229.005 45.8502H229.004ZM130.899 31.7455L117.257 18.1039H130.899V31.7455ZM117.109 18.253L130.856 31.9996L117.109 45.7462V18.253ZM103.109 157.956V130.252L116.899 144.042V171.745L103.109 157.956ZM116.899 143.746L103.109 129.956V102.253L116.899 116.043V143.746ZM103.257 102.104H130.899V129.745L103.257 102.104ZM144.961 144.104L145.004 144.147L145.047 144.104H158.749L131.108 171.745V144.104H144.96H144.961ZM229.258 101.894L256.9 74.2527V101.894H229.258ZM243.11 31.7455V18.1039H256.752L243.11 31.7455ZM187.005 17.8509L173.258 4.1043H200.752L187.005 17.8509ZM117.258 17.8939L130.9 4.25235V17.8939H117.258ZM117.005 17.8509L103.258 4.1043H130.752L117.005 17.8509ZM116.752 18.1039L89.1106 45.7452V18.1039H116.752ZM116.9 18.252V45.9552L103.11 59.7449V32.0416L116.9 18.252ZM103.11 60.042L116.9 46.2523V73.9555L103.11 87.7452V60.042ZM117.005 74.1466L130.9 88.0413V101.893H103.109V88.0413L117.004 74.1466H117.005ZM102.9 101.893H89.2587L102.9 88.2513V101.893ZM117.005 186.146L130.752 199.893H103.258L117.005 186.146ZM117.11 171.954V116.252L130.857 129.998L130.9 130.041V144.103V171.954L130.857 171.997L130.9 172.04V185.744L117.11 171.954ZM131.259 171.892L145.049 158.103H172.752L158.962 171.892H131.259ZM158.752 172.102L145.006 185.849L131.259 172.102H158.752ZM215.112 185.892V158.251L242.753 185.892H215.112ZM215.26 158.102H242.963L256.753 171.891H229.049L215.26 158.102ZM215.26 157.891L229.006 144.145L242.753 157.891H215.26ZM215.112 157.743V144.102H228.753L215.112 157.743ZM215.112 115.891V102.25L228.753 115.891H215.112ZM256.897 -10.1054H243.255L256.897 -23.747V-10.1054ZM256.897 -9.89535V17.895H243.045L229.15 4.00035L243.045 -9.8943H256.897V-9.89535ZM228.958 3.8943H201.255L215.044 -9.89535H242.748L228.958 3.8943ZM131.106 17.8939V4.25235L144.747 17.8939H131.106ZM88.9573 -9.89535L102.747 3.8943H75.0436L61.2539 -9.89535H88.9573ZM75.0436 4.1043H102.957L116.747 17.8939H61.2539L75.0436 4.1043ZM88.8953 102.253V115.957L88.8523 116L88.8953 116.043V157.956L75.1056 171.745V116.042L88.8953 102.252V102.253ZM74.8956 144.253V171.956L61.1058 185.746V158.043L74.8956 144.253ZM60.8958 185.746L47.1481 172L60.8948 158.254V185.747L60.8958 185.746ZM74.8525 200L60.9578 213.894H47.105V186.104H60.9567L74.8515 199.999L74.8525 200ZM75.0447 200.105H102.748L88.9584 213.894H61.2539L75.0436 200.105H75.0447ZM131.107 172.253L144.748 185.895H131.107V172.253ZM173.107 186.253L186.749 199.895H173.107V186.253ZM173.255 186.105H214.897H228.959L242.749 199.895H187.046L173.256 186.105H173.255ZM215.256 200.105H242.959L256.749 213.894H229.045L215.256 200.105ZM256.749 214.104L243.002 227.851L229.255 214.104H256.749ZM271.046 185.894L271.003 185.851L270.96 185.894H243.046L229.256 172.104H284.96L298.75 185.894H271.047H271.046ZM257.046 171.894L243.256 158.105H270.96L284.749 171.894H257.046ZM270.96 157.895H243.046L229.256 144.105H284.749L270.96 157.895ZM229.256 143.895L243.046 130.105H270.96L284.749 143.895H229.255H229.256ZM271.257 130.105H298.75L285.003 143.852L271.257 130.105ZM271.047 129.895L257.257 116.106H284.96L298.75 129.895H271.047ZM229.046 115.896L215.257 102.106H228.96L229.003 102.149L229.046 102.106H270.96L284.749 115.896H229.046ZM242.96 -10.1043H187.256L201.045 -23.895H256.749L242.959 -10.1054L242.96 -10.1043ZM200.748 -23.895L173.106 3.74625V-23.895H200.748ZM172.896 3.95625L172.853 3.9993L172.896 4.04235V17.8939H145.255L172.896 -9.7473V3.95625ZM158.896 -23.747V3.95625L145.107 17.7459V-9.95625L158.896 -23.747ZM144.897 -9.7473V17.7459L131.15 3.9993L144.897 -9.7473ZM130.896 -23.895V3.74625L103.254 -23.895H130.896ZM102.957 -23.895L116.747 -10.1054H61.0439L47.2531 -23.895H102.956H102.957ZM60.7467 -10.1054H47.105V-23.747L60.7467 -10.1054ZM47.105 -9.89535H60.9567L74.8515 3.9993L60.9567 17.8939H47.105V-9.89535ZM88.8953 18.253V31.8946H75.2536L88.8953 18.253ZM75.0436 32.1046H88.8953V59.895H75.0436L75.0006 59.852L61.1489 46.0003L75.0436 32.1057V32.1046ZM88.8953 60.105V73.7466L75.2536 60.105H88.8953ZM75.0006 60.148L88.7473 73.8946H61.2539L75.0006 60.148ZM47.2531 87.8953L61.0428 74.1057H88.7462L74.9565 87.8953H47.2531ZM88.8953 74.2537V101.895H61.2539L88.8953 74.2537ZM74.8956 102.105V115.957L61.0008 129.851L47.105 115.957V102.105H74.8956ZM47.105 116.254L60.8948 130.043V157.957L47.105 171.746V116.253V116.254ZM60.7467 185.895H47.105V172.253L60.7467 185.895ZM47.105 214.105H60.7467L47.105 227.747V214.105ZM61.0439 214.105H116.747L102.957 227.895H47.2531L61.0428 214.105H61.0439ZM103.254 227.895L130.896 200.254V227.895H103.254ZM145.002 213.851L131.15 200L131.107 199.957V186.105H144.958L145.002 186.148L145.045 186.105H158.896V199.957L145.002 213.851ZM159.106 186.105H172.748L159.106 199.747V186.105ZM173.106 200.105H186.958L200.853 213.999L186.958 227.894H173.106V200.104V200.105ZM187.255 227.895L201.045 214.105H228.958L242.748 227.895H187.254H187.255ZM243.255 227.895L256.897 214.253V227.895H243.255ZM257.107 186.105H270.748L257.107 199.747V186.105ZM257.15 200L270.897 186.253V213.746L257.15 200ZM284.896 227.746L271.107 213.956V186.253L284.896 200.043V227.746ZM298.896 213.746L271.255 186.105H298.896V213.746ZM298.896 185.747L285.254 172.105H298.896V185.747ZM285.044 171.895L271.15 158.001L285.044 144.106H298.896V171.896H285.044V171.895ZM298.896 143.895H285.254L298.896 130.253V143.895ZM271.255 102.105H298.896V129.746L271.255 102.105ZM257.106 101.746V88.1043H270.747L257.106 101.746ZM270.957 87.8943H257.106V60.1039H270.957L271 60.147L284.852 73.9986L270.957 87.8932V87.8943ZM257.106 59.8939V46.2523L270.747 59.8939H257.106ZM271 59.8509L257.254 46.1043H284.747L271 59.8509ZM298.747 32.1046L284.957 45.8943H257.254L271.044 32.1046H298.747ZM257.105 45.7462V18.105H284.746L257.105 45.7462Z" fill="url(#paint0_radial_6805_557)"/>
</g>
</g>
<defs>
<filter id="filter0_n_6805_557" x="0" y="0" width="346" height="204" filterUnits="userSpaceOnUse" color-interpolation-filters="sRGB">
<feFlood flood-opacity="0" result="BackgroundImageFix"/>
<feBlend mode="normal" in="SourceGraphic" in2="BackgroundImageFix" result="shape"/>
<feTurbulence type="fractalNoise" baseFrequency="2 2" stitchTiles="stitch" numOctaves="3" result="noise" seed="2085" />
<feColorMatrix in="noise" type="luminanceToAlpha" result="alphaNoise" />
<feComponentTransfer in="alphaNoise" result="coloredNoise1">
<feFuncA type="discrete" tableValues="1 1 1 1 1 1 1 1 1 1 1 1 1 1 1 1 1 1 1 1 1 1 1 1 1 1 1 1 1 1 1 1 1 1 1 1 1 1 1 1 1 1 1 1 1 1 1 1 1 1 1 0 0 0 0 0 0 0 0 0 0 0 0 0 0 0 0 0 0 0 0 0 0 0 0 0 0 0 0 0 0 0 0 0 0 0 0 0 0 0 0 0 0 0 0 0 0 0 0 0 "/>
</feComponentTransfer>
<feComposite operator="in" in2="shape" in="coloredNoise1" result="noise1Clipped" />
<feFlood flood-color="rgba(0, 0, 0, 0.25)" result="color1Flood" />
<feComposite operator="in" in2="noise1Clipped" in="color1Flood" result="color1" />
<feMerge result="effect1_noise_6805_557">
<feMergeNode in="shape" />
<feMergeNode in="color1" />
</feMerge>
</filter>
<radialGradient id="paint0_radial_6805_557" cx="0" cy="0" r="1" gradientUnits="userSpaceOnUse" gradientTransform="translate(169.269 102) scale(123.393 123.392)">
<stop stop-color="#00835C"/>
<stop offset="1" stop-color="#2D354A" stop-opacity="0.1"/>
</radialGradient>
<clipPath id="clip0_6805_557">
<rect width="346" height="204" rx="14" fill="white"/>
</clipPath>
</defs>
</svg>
