<svg width="118" height="46" viewBox="0 0 118 46" fill="none" xmlns="http://www.w3.org/2000/svg">
<path d="M38.0156 13.8516C24.9529 18.4953 22.2139 31.9452 21.1934 38.0898H13.2725C9.79924 29.3355 7.60032 17.984 1.73633 16.8936L1.4541 16.8496H15.9463C15.9464 17.7679 16.5844 17.9549 16.9033 17.9336C20.7814 8.85095 32.5937 4.28405 38.0156 3.13574V13.8516ZM15.9463 16.8486H1.44336C1.44693 16.8491 1.45054 16.8492 1.4541 16.8496H0.12793C0.1315 16.8492 0.135104 16.8491 0.138672 16.8486H0V0.902344H15.9463V16.8486Z" fill="white"/>
<path d="M35.619 38.0957C34.8926 38.0957 34.2235 37.9141 33.6117 37.5509C33 37.1685 32.5029 36.6715 32.1206 36.0597C31.7574 35.448 31.5758 34.7789 31.5758 34.0524V25.507C31.5758 24.7805 31.7574 24.1114 32.1206 23.4997C32.5029 22.8879 33 22.4004 33.6117 22.0372C34.2235 21.6549 34.8926 21.4637 35.619 21.4637H44.3939C45.1394 21.4637 45.8181 21.6549 46.4298 22.0372C47.0416 22.4004 47.5291 22.8879 47.8923 23.4997C48.2555 24.1114 48.4372 24.7805 48.4372 25.507V31.8444H35.6477V33.8517C35.6477 33.8899 35.6668 33.9281 35.7051 33.9664C35.7433 34.0046 35.7815 34.0237 35.8198 34.0237H48.4372V38.0957H35.619ZM35.6477 28.2025H44.3652V25.7077C44.3652 25.6695 44.3461 25.6313 44.3078 25.593C44.2696 25.5548 44.2314 25.5357 44.1931 25.5357H35.8198C35.7815 25.5357 35.7433 25.5548 35.7051 25.593C35.6668 25.6313 35.6477 25.6695 35.6477 25.7077V28.2025ZM54.8016 38.0957C54.0752 38.0957 53.4061 37.9141 52.7943 37.5509C52.1826 37.1685 51.6855 36.6715 51.3032 36.0597C50.9399 35.448 50.7583 34.7789 50.7583 34.0524V25.507C50.7583 24.7805 50.9399 24.1114 51.3032 23.4997C51.6855 22.8879 52.1826 22.4004 52.7943 22.0372C53.4061 21.6549 54.0752 21.4637 54.8016 21.4637H67.5911V25.5357H55.0024C54.9641 25.5357 54.9259 25.5548 54.8877 25.593C54.8494 25.6313 54.8303 25.6695 54.8303 25.7077V33.8517C54.8303 33.8899 54.8494 33.9281 54.8877 33.9664C54.9259 34.0046 54.9641 34.0237 55.0024 34.0237H67.6197V38.0957H54.8016ZM74.0422 38.0957C73.2967 38.0957 72.618 37.9141 72.0063 37.5509C71.3945 37.1685 70.8975 36.6715 70.5151 36.0597C70.1519 35.448 69.9703 34.7789 69.9703 34.0524V16.4454H74.0422V21.4637H80.3796V25.5357H74.0422V33.8517C74.0422 33.8899 74.0614 33.9281 74.0996 33.9664C74.1378 34.0046 74.1761 34.0237 74.2143 34.0237H80.3796V38.0957H74.0422ZM82.9633 38.0957V25.507C82.9633 24.7805 83.145 24.1114 83.5082 23.4997C83.8905 22.8879 84.3876 22.4004 84.9993 22.0372C85.6302 21.6549 86.3089 21.4637 87.0353 21.4637H96.2403V25.5357H87.2074C87.1691 25.5357 87.1309 25.5548 87.0927 25.593C87.0544 25.6313 87.0353 25.6695 87.0353 25.7077V38.0957H82.9633ZM102.521 38.0957C101.794 38.0957 101.116 37.9141 100.485 37.5509C99.873 37.1685 99.3855 36.6715 99.0223 36.0597C98.659 35.448 98.4774 34.7789 98.4774 34.0524V27.715H111.267V25.7077C111.267 25.6695 111.248 25.6313 111.21 25.593C111.171 25.5548 111.133 25.5357 111.095 25.5357H98.4774V21.4637H111.296C112.041 21.4637 112.72 21.6549 113.332 22.0372C113.943 22.4004 114.431 22.8879 114.794 23.4997C115.157 24.1114 115.339 24.7805 115.339 25.507V38.0957H102.521ZM102.721 34.0237H111.267V31.3569H102.549V33.8517C102.549 33.8899 102.569 33.9281 102.607 33.9664C102.645 34.0046 102.683 34.0237 102.721 34.0237Z" fill="white"/>
</svg>
