<svg width="390" height="412" viewBox="0 0 390 412" fill="none" xmlns="http://www.w3.org/2000/svg">
<path opacity="0.45" d="M400.832 0V68.253L378.287 45.708V0H377.873L377.943 0.0703833V45.3629L355.398 22.8179V0H355.055V22.8179L332.51 45.3629V0H194.832V22.8179L172.287 45.3629V0H171.873L149.398 22.4746V0H149.055V22.8179L126.51 45.3629V0H-11V68.8383H57.2535L34.7084 91.3833H-11V91.797L-10.9296 91.7267H34.3633L11.8181 114.272H-11V114.615H11.8181L34.3633 137.16H-11V137.503H34.3633L11.8181 160.048H-11V160.392H11.4748L-11 182.868V183.282H34.3633L11.8181 205.827H-11V411.998H126.506V366.635L149.051 389.18V411.998H149.395V389.18L171.94 366.635V411.928L171.869 411.998H172.283V366.292L194.828 343.747V412H332.506V389.182L332.577 389.112L332.506 389.041V366.637L355.051 389.182V412H355.395V389.525L377.869 412H378.283V366.637L400.828 389.182V412H401V205.828H332.746L355.292 183.283H400.998V182.87L400.928 182.94H355.635L378.18 160.395H400.998V160.052H378.18L355.635 137.507H400.998V137.163H355.635L378.18 114.618H400.998V114.275H378.523L400.998 91.8005V91.3867H355.635L378.18 68.8418H400.998V0H400.827H400.832ZM355.225 23.1321L377.942 45.8487V68.495H332.506V45.8487L355.223 23.1321H355.225ZM378.285 46.1921L400.588 68.495H378.285V46.1921ZM240.851 388.94L218.306 366.395H263.599L286.144 388.94H240.851ZM149.638 343.162L172.184 320.617H217.82L240.365 343.162H149.638ZM103.374 388.94H58.081L80.6261 366.395H125.919L103.374 388.94ZM12.0602 251.849L34.6053 229.304V274.596L12.0602 297.141V251.849ZM57.2518 206.172L34.9487 228.475V206.172H57.2518ZM57.8389 160.151V114.515L80.3841 91.9704V183.041L57.8389 205.586V160.294L57.9093 160.223L57.8389 160.153V160.151ZM125.921 45.6067H80.6278L58.0827 23.0617H103.376L125.921 45.6067ZM217.962 23.0617H263.255L240.71 45.6067H195.417L217.962 23.0617ZM332.266 229.062L354.811 251.607H309.518L286.973 229.062H332.266ZM309.206 251.778L286.489 274.495H263.842V229.06H286.489L309.206 251.777V251.778ZM332.166 366.294V388.698L286.975 343.507H332.166V366.153L332.096 366.223L332.166 366.294ZM240.853 343.162L218.136 320.445L240.853 297.728H263.499V343.163H240.853V343.162ZM217.822 320.273H172.529L195.074 297.728H240.367L217.822 320.273ZM34.8508 366.052L12.3057 343.507H103.032L80.4871 366.052H34.8508ZM57.4973 297.97V343.162H12.3057L57.4973 297.97ZM195.173 46.1921L217.477 68.495H195.173V46.1921ZM286.487 45.95L309.032 68.495H218.306L240.851 45.95H286.487ZM332.165 114.515V160.151L309.619 182.696V91.6254L332.165 69.0804V114.373L332.094 114.443L332.165 114.514V114.515ZM241.194 297.383L263.497 275.08V297.383H241.194ZM149.638 297.383L172.184 274.838H195.173H263.255L240.71 297.383H149.638ZM103.618 343.162V320.859L125.921 343.162H103.618ZM126.163 343.505V365.808L103.86 343.505H126.163ZM103.274 343.162H57.8389V320.515L80.5557 297.799L103.273 320.515V343.162H103.274ZM103.618 114.515L126.163 91.9704V137.162V182.696L103.618 160.151V114.515ZM149.225 68.9087L149.295 68.8383H217.82L240.365 91.3833H149.293L126.748 68.8383H149.153L149.223 68.9087H149.225ZM286.731 205.585V160.292L309.276 137.747V183.04L286.731 205.585ZM80.3858 297.483L57.8406 320.028V229.3L80.3858 251.845V297.481V297.483ZM80.1437 206.17L57.8406 228.473V206.17H80.1437ZM57.9127 228.887L80.3875 206.412V251.361L57.9127 228.887ZM126.51 205.827V160.635L149.055 183.18V228.816L126.51 251.361V205.827ZM148.813 91.3816H126.51V69.0787L148.813 91.3816ZM126.51 91.7249H149.156L171.873 114.442L149.156 137.158H126.51V91.7232V91.7249ZM286.389 160.15L263.844 182.695V114.514L263.914 114.443L263.844 114.373V91.9687L286.389 114.514V160.15ZM286.389 205.585L263.914 183.11L286.389 160.635V205.585ZM263.501 274.251L240.956 251.706V160.635L263.43 183.11L263.501 183.18V205.827V274.25V274.251ZM172.187 114.615H217.823L240.368 137.16H217.966L217.895 137.09L217.825 137.16H194.835H149.644L172.189 114.615H172.187ZM240.612 205.585L218.067 183.04V137.747L240.612 160.292V205.585ZM172.288 160.292L194.833 137.747V160.15L194.763 160.22L194.833 160.29V205.997V228.814L172.288 251.359V160.289V160.292ZM194.591 137.503L172.288 159.806V137.503H194.591ZM194.833 229.302V274.493H149.642L194.833 229.302ZM195.177 137.503H217.48L195.177 159.806V137.503ZM217.722 137.745V182.695L195.247 160.22L217.722 137.745ZM218.309 137.503H240.712L240.782 137.574L240.853 137.503H263.499V182.695L218.307 137.503H218.309ZM241.198 137.16L263.501 114.857V137.16H241.198ZM240.782 137.09L218.307 114.615H263.257L240.782 137.09ZM171.943 137.503V160.15L149.226 182.866L126.51 160.15V137.503H171.945H171.943ZM149.398 183.18L171.943 160.635V205.928L149.398 228.473V183.18ZM171.943 206.412V251.705L149.398 274.25V228.957L171.943 206.412ZM149.055 274.25L126.58 251.775L149.055 229.3V274.25ZM148.813 274.492H126.51V252.189L148.813 274.492ZM195.177 205.997V160.634L217.722 183.179V228.814L195.177 251.359V205.997ZM218.065 183.522L240.611 206.067V251.359L218.065 228.814V183.522ZM263.501 68.8349V114.026L218.309 68.8349H263.501ZM263.259 114.27H217.966L195.421 91.7249H240.714L263.259 114.27ZM194.935 91.7249L217.48 114.27H172.187L149.642 91.7249H194.935ZM195.177 251.847L217.894 229.13L240.611 251.847V274.493H195.175V251.847H195.177ZM240.956 252.19L263.259 274.493H240.956V252.19ZM263.844 183.524L286.147 205.827H263.844V183.524ZM309.279 137.26L286.734 159.805V114.512L309.279 91.967V137.26ZM286.563 114.2L263.846 91.4829V68.8366H309.281V91.4829L286.564 114.2H286.563ZM126.168 91.1395L103.865 68.8366H126.168V91.1395ZM103.623 69.0804L126.098 91.555L103.623 114.03V69.0804ZM80.7343 297.483V252.19L103.279 274.735V320.028L80.7343 297.483ZM103.279 274.251L80.7343 251.706V206.414L103.279 228.959V274.251ZM80.9763 206.17H126.168V251.361L80.9763 206.17ZM149.158 274.837L149.228 274.907L149.299 274.837H171.701L126.51 320.028V274.837H149.156H149.158ZM286.978 205.827L332.17 160.635V205.827H286.978ZM309.625 91.1395V68.8366H331.928L309.625 91.1395ZM217.897 68.4229L195.422 45.9483H240.372L217.897 68.4229ZM103.867 68.4933L126.17 46.1903V68.4933H103.867ZM103.453 68.4229L80.978 45.9483H125.928L103.453 68.4229ZM103.039 68.8366L57.8475 114.028V68.8366H103.039ZM103.281 69.0787V114.371L80.736 136.916V91.6236L103.281 69.0787ZM80.736 137.402L103.281 114.857V160.15L80.736 182.695V137.402ZM103.453 160.462L126.17 183.179V205.825H80.7343V183.179L103.451 160.462H103.453ZM80.3927 205.825H58.0895L80.3927 183.522V205.825ZM103.453 343.572L125.928 366.047H80.978L103.453 343.572ZM103.625 320.369V229.3L126.099 251.775L126.17 251.845V274.835V320.369L126.099 320.44L126.17 320.51V342.914L103.625 320.369ZM126.757 320.268L149.302 297.723H194.595L172.05 320.268H126.757ZM171.706 320.612L149.232 343.086L126.757 320.612H171.706ZM263.849 343.157V297.965L309.041 343.157H263.849ZM264.091 297.721H309.384L331.929 320.266H286.636L264.091 297.721ZM264.091 297.378L286.566 274.904L309.041 297.378H264.091ZM263.849 297.136V274.833H286.152L263.849 297.136ZM263.849 228.712V206.409L286.152 228.712H263.849ZM332.165 22.7167H309.861L332.165 0.413717V22.7167ZM332.165 23.06V68.495H309.518L286.801 45.7784L309.518 23.0617H332.165V23.06ZM286.487 45.605H241.194L263.739 23.06H309.032L286.487 45.605ZM126.506 68.4933V46.1903L148.809 68.4933H126.506ZM57.5969 23.06L80.142 45.605H34.8491L12.3039 23.06H57.5969ZM34.8491 45.9483H80.4854L103.031 68.4933H12.3039L34.8491 45.9483ZM57.4956 206.414V228.818L57.4252 228.888L57.4956 228.959V297.483L34.9504 320.028V228.957L57.4956 206.412V206.414ZM34.6071 275.08V320.373L12.0619 342.918V297.625L34.6071 275.08ZM11.7186 342.918L-10.7579 320.445L11.7168 297.97V342.92L11.7186 342.918ZM34.5367 366.222L11.8198 388.938H-10.8283V343.503H11.8181L34.535 366.22L34.5367 366.222ZM34.8508 366.393H80.1437L57.5986 388.938H12.3039L34.8491 366.393H34.8508ZM126.508 320.859L148.811 343.162H126.508V320.859ZM195.175 343.747L217.478 366.05H195.175V343.747ZM195.417 343.505H263.499H286.489L309.034 366.05H217.964L195.419 343.505H195.417ZM264.084 366.393H309.377L331.922 388.938H286.63L264.084 366.393ZM331.922 389.282L309.448 411.756L286.973 389.282H331.922ZM355.297 343.16L355.226 343.09L355.156 343.16H309.52L286.975 320.615H378.046L400.591 343.16H355.299H355.297ZM332.408 320.272L309.863 297.727H355.156L377.701 320.272H332.408ZM355.156 297.383H309.52L286.975 274.838H377.701L355.156 297.383ZM286.975 274.495L309.52 251.95H355.156L377.701 274.495H286.973H286.975ZM355.642 251.95H400.591L378.117 274.425L355.642 251.95ZM355.299 251.607L332.753 229.062H378.046L400.591 251.607H355.299ZM286.631 228.718L264.086 206.173H286.491L286.561 206.244L286.631 206.173H355.156L377.701 228.718H286.631ZM309.379 22.7184H218.307L240.851 0.171667H331.922L309.377 22.7167L309.379 22.7184ZM240.365 0.171667L195.173 45.3629V0.171667H240.365ZM194.83 45.7062L194.76 45.7766L194.83 45.847V68.4933H149.638L194.83 23.302V45.7062ZM171.942 0.413717V45.7062L149.396 68.2512V22.9604L171.942 0.413717ZM149.053 23.302V68.2512L126.578 45.7766L149.053 23.302ZM126.163 0.171667V45.3629L80.9712 0.171667H126.163ZM80.4854 0.171667L103.031 22.7167H11.9606L-10.5863 0.171667H80.4836H80.4854ZM11.4748 22.7167H-10.8283V0.413717L11.4748 22.7167ZM-10.8283 23.06H11.8181L34.535 45.7766L11.8181 68.4933H-10.8283V23.06ZM57.4956 69.0804V91.3833H35.1924L57.4956 69.0804ZM34.8491 91.7267H57.4956V137.162H34.8491L34.7787 137.091L12.1323 114.445L34.8491 91.7284V91.7267ZM57.4956 137.505V159.808L35.1924 137.505H57.4956ZM34.7787 137.575L57.2535 160.05H12.3039L34.7787 137.575ZM-10.5863 182.94L11.9589 160.395H57.2518L34.7066 182.94H-10.5863ZM57.4956 160.637V205.828H12.3039L57.4956 160.637ZM34.6071 206.172V228.818L11.8902 251.535L-10.8283 228.818V206.172H34.6071ZM-10.8283 229.304L11.7168 251.849V297.485L-10.8283 320.03V229.302V229.304ZM11.4748 343.162H-10.8283V320.859L11.4748 343.162ZM-10.8283 389.283H11.4748L-10.8283 411.586V389.283ZM11.9606 389.283H103.031L80.4854 411.828H-10.5863L11.9589 389.283H11.9606ZM80.9712 411.828L126.163 366.637V411.828H80.9712ZM149.225 388.868L126.578 366.222L126.508 366.151V343.505H149.154L149.225 343.575L149.295 343.505H171.942V366.151L149.225 388.868ZM172.285 343.505H194.588L172.285 365.808V343.505ZM195.173 366.393H217.82L240.537 389.11L217.82 411.827H195.173V366.392V366.393ZM218.306 411.828L240.851 389.283H286.487L309.032 411.828H218.304H218.306ZM309.861 411.828L332.165 389.525V411.828H309.861ZM332.508 343.505H354.811L332.508 365.808V343.505ZM332.578 366.222L355.053 343.747V388.696L332.578 366.222ZM377.942 411.585L355.396 389.04V343.747L377.942 366.292V411.585ZM400.83 388.696L355.638 343.505H400.83V388.696ZM400.83 342.92L378.527 320.617H400.83V342.92ZM378.184 320.273L355.467 297.557L378.184 274.84H400.83V320.275H378.184V320.273ZM400.83 274.495H378.527L400.83 252.192V274.495ZM355.638 206.172H400.83V251.363L355.638 206.172ZM332.506 205.585V183.282H354.809L332.506 205.585ZM355.153 182.938H332.506V137.503H355.153L355.223 137.574L377.869 160.22L355.153 182.937V182.938ZM332.506 137.16V114.857L354.809 137.16H332.506ZM355.223 137.09L332.748 114.615H377.698L355.223 137.09ZM400.586 91.7267L378.041 114.272H332.748L355.293 91.7267H400.586ZM332.504 114.03V68.8383H377.696L332.504 114.03Z" fill="url(#paint0_radial_6907_1042)"/>
<defs>
<radialGradient id="paint0_radial_6907_1042" cx="0" cy="0" r="1" gradientUnits="userSpaceOnUse" gradientTransform="translate(188.901 206) scale(160.471 160.47)">
<stop stop-color="#1DE3F0"/>
<stop offset="0.21" stop-color="#1DE3F0"/>
<stop offset="0.43" stop-color="#009FAA"/>
<stop offset="1" stop-color="#F2E1A4" stop-opacity="0"/>
</radialGradient>
</defs>
</svg>
