<svg width="400" height="208" viewBox="0 0 400 208" fill="none" xmlns="http://www.w3.org/2000/svg">
<rect x="0.5" y="0.5" width="399" height="207" rx="13.5" fill="#101624"/>
<rect x="0.5" y="0.5" width="399" height="207" rx="13.5" stroke="#1E2537"/>
<g clip-path="url(#clip0_6791_672)" filter="url(#filter0_i_6791_672)">
<rect width="400" height="168" fill="#1E2537"/>
<path d="M517.129 68.1019L512.033 67M517.129 68.1019H502.027M517.129 68.1019L522.394 69.2402M517.129 68.1019H527.823M512.033 67L513.887 67.0004L515.722 67.0028L517.519 67.0095L519.259 67.0227L520.925 67.0442L522.496 67.0764L523.956 67.1213L525.311 67.1784L526.474 67.2575L527.533 67.3491L527.823 67.3812V68.1019M512.033 67H497.174M497.174 67H482.315M497.174 67L502.027 68.1019M482.315 67H467.457M482.315 67L486.926 68.1019M467.457 67H452.598M467.457 67L471.825 68.1019M452.598 67H437.739M452.598 67L456.723 68.1019M437.739 67H422.88M437.739 67L441.622 68.1019M422.88 67H408.022M422.88 67L426.521 68.1019M408.022 67H393.163M408.022 67L411.419 68.1019M393.163 67H378.304M393.163 67L396.318 68.1019M378.304 67H363.446M378.304 67L381.216 68.1019M363.446 67H348.587M363.446 67L366.115 68.1019M348.587 67H333.728M348.587 67L351.014 68.1019M333.728 67H318.87M333.728 67L334.268 67.2722L335.085 67.6844L335.912 68.1019M318.87 67H304.011M318.87 67L319.349 67.2722L320.811 68.1019M304.011 67H289.152M304.011 67L305.709 68.1019M289.152 67H274.293M289.152 67L289.693 67.4091L290.24 67.823L290.424 67.9622L290.608 68.1019M274.293 67H259.435M274.293 67L274.744 67.4091L274.895 67.5464L275.047 67.6844L275.507 68.1019M259.435 67H244.576M259.435 67L260.406 68.1019M244.576 67L244.666 67.1358L244.756 67.2722L245.212 67.9622L245.304 68.1019M244.576 67H229.718M229.718 67H214.859M229.718 67L230.203 68.1019M214.859 67H200M214.859 67L214.949 67.4091L215.101 68.1019M200 67H185.141M200 67V68.1019M185.141 67H170.282M185.141 67L185.051 67.4091L184.899 68.1019M170.282 67H155.424M170.282 67L169.797 68.1019M155.424 67L155.334 67.1358L155.244 67.2722L154.788 67.9622L154.696 68.1019M155.424 67H140.565M140.565 67H125.706M140.565 67L139.718 67.9622L139.594 68.1019M125.706 67H110.848M125.706 67L125.256 67.4091L125.105 67.5464L124.8 67.823L124.647 67.9622L124.493 68.1019M110.848 67H95.9891M110.848 67L110.308 67.4091L109.76 67.823L109.576 67.9622L109.392 68.1019M95.9891 67H81.1305M95.9891 67L94.2906 68.1019M81.1305 67H66.2716M81.1305 67L80.6511 67.2722L79.1892 68.1019M66.2716 67H51.413M66.2716 67L64.0878 68.1019M51.413 67H36.5544M51.413 67L48.9864 68.1019M36.5544 67H21.6955M36.5544 67L33.885 68.1019M21.6955 67H6.83687M21.6955 67L18.7836 68.1019M6.83687 67H-8.02173M6.83687 67L3.68225 68.1019M-8.02173 67H-22.8803M-8.02173 67L-11.4191 68.1019M-22.8803 67H-37.7393M-22.8803 67L-26.5205 68.1019M-37.7393 67H-52.5979M-37.7393 67L-41.6219 68.1019M-52.5979 67H-67.4565M-52.5979 67L-56.7233 68.1019M-67.4565 67H-82.3154M-67.4565 67L-71.8247 68.1019M-82.3154 67H-97.174M-82.3154 67L-86.9258 68.1019M-97.174 67H-112.033M-97.174 67L-102.027 68.1019M-112.033 67L-113.887 67.0004L-115.722 67.0028L-117.519 67.0095L-119.259 67.0227L-120.924 67.0442L-122.496 67.0764L-123.956 67.1213L-125.311 67.1784L-126.474 67.2575L-127.533 67.3491L-127.823 67.3812V68.1019M-112.033 67L-117.129 68.1019M-86.9258 68.1019H-71.8247M-86.9258 68.1019H-102.027M-86.9258 68.1019L-91.6898 69.2402M-71.8247 68.1019L-76.3377 69.2402M-71.8247 68.1019H-56.7233M-26.5205 68.1019H-11.4191M-26.5205 68.1019H-41.6219M-26.5205 68.1019L-27.449 68.383L-30.2813 69.2402M-11.4191 68.1019L-14.9292 69.2402M-11.4191 68.1019H3.68225M33.885 68.1019H48.9864M33.885 68.1019H18.7836M33.885 68.1019L33.2041 68.383L32.8613 68.5242L31.1269 69.2402M48.9864 68.1019L48.6774 68.242L48.3673 68.383L46.4792 69.2402M48.9864 68.1019H64.0878M94.2906 68.1019L94.0741 68.242L92.5354 69.2402M94.2906 68.1019H109.392M94.2906 68.1019H79.1892M109.392 68.1019L109.02 68.383L108.833 68.5242L108.646 68.6663L107.887 69.2402M109.392 68.1019H124.493M154.696 68.1019H169.797M154.696 68.1019H139.594M154.696 68.1019L153.944 69.2402M169.797 68.1019L169.735 68.242L169.674 68.383L169.611 68.5242L169.423 68.9519L169.296 69.2402M169.797 68.1019H184.899M215.101 68.1019H230.203M215.101 68.1019H200M215.101 68.1019L215.352 69.2402M230.203 68.1019L230.265 68.242L230.326 68.383L230.389 68.5242L230.704 69.2402M230.203 68.1019H245.304M275.507 68.1019H290.608M275.507 68.1019H260.406M275.507 68.1019L275.816 68.383L276.443 68.9519L276.601 69.0957L276.761 69.2402M290.608 68.1019L290.98 68.383L291.167 68.5242L291.354 68.6663L292.113 69.2402M290.608 68.1019H305.709M335.912 68.1019H351.014M335.912 68.1019H320.811M335.912 68.1019L336.469 68.383L336.75 68.5242L338.169 69.2402M351.014 68.1019L351.323 68.242L351.633 68.383L353.521 69.2402M351.014 68.1019H366.115M396.318 68.1019H411.419M396.318 68.1019H381.216M396.318 68.1019L397.123 68.383L397.528 68.5242L399.577 69.2402M411.419 68.1019L414.929 69.2402M411.419 68.1019H426.521M456.723 68.1019H471.825M456.723 68.1019H441.622M456.723 68.1019L460.985 69.2402M471.825 68.1019L476.338 69.2402M471.825 68.1019H486.926M-127.876 78.4063H-127.823M-112.677 78.4063L-106.911 76.952M-112.677 78.4063L-118.663 79.9162M-112.677 78.4063H-95.3058M-112.677 78.4063H-127.823M-106.911 76.952H-123.962M-106.911 76.952L-101.354 75.5504M-106.911 76.952H-89.8605M-123.962 76.952L-118.096 75.5504M-123.962 76.952H-127.823M-123.962 76.952L-127.823 77.8746M-106.98 72.8939H-90.8231M-106.98 72.8939L-101.708 71.6342M-106.98 72.8939H-123.137M-106.98 72.8939L-112.439 74.1986M-90.8231 72.8939L-85.8286 71.6342M-90.8231 72.8939L-95.9949 74.1986M-90.8231 72.8939H-74.6662M-101.708 71.6342H-85.8286M-101.708 71.6342L-96.6143 70.417M-101.708 71.6342H-117.588M-85.8286 71.6342H-69.9493M-85.8286 71.6342L-81.0031 70.417M-127.99 101.36H-127.823M-113.973 101.36L-106.538 98.9494M-113.973 101.36L-121.778 103.892M-113.973 101.36H-91.5464M-113.973 101.36H-127.823M-106.538 98.9494L-99.4476 96.6499M-106.538 98.9494H-84.643M-106.538 98.9494H-127.823M-120.837 96.6499H-99.4476M-120.837 96.6499L-113.583 94.4543M-120.837 96.6499H-127.823M-120.837 96.6499L-127.823 98.7646M-106.65 92.3557H-86.2069M-106.65 92.3557L-100.017 90.3481M-106.65 92.3557H-127.093M-106.65 92.3557L-113.583 94.4543M-86.2069 92.3557L-80.0159 90.3481M-86.2069 92.3557L-92.6777 94.4543M-86.2069 92.3557H-65.7634M-100.017 90.3481H-80.0159M-100.017 90.3481H-120.018M-100.017 90.3481L-93.6649 88.4254M-80.0159 90.3481L-74.0874 88.4254M-80.0159 90.3481H-60.0149M-81.7349 84.8144H-62.9526M-81.7349 84.8144L-76.126 83.1167M-81.7349 84.8144H-100.517M-81.7349 84.8144L-87.5763 86.5824M-62.9526 84.8144L-57.7177 83.1167M-62.9526 84.8144L-68.4044 86.5824M-62.9526 84.8144H-44.1701M-76.126 83.1167H-57.7177M-76.126 83.1167H-94.5343M-76.126 83.1167L-70.7361 81.4852M-57.7177 83.1167L-52.687 81.4852M-57.7177 83.1167H-39.3091M-60.564 78.4063H-43.1931M-60.564 78.4063L-55.7593 76.952M-60.564 78.4063H-77.9349M-60.564 78.4063L-65.5527 79.9162M-43.1931 78.4063L-38.7087 76.952M-43.1931 78.4063L-47.8492 79.9162M-43.1931 78.4063H-25.8222M-55.7593 76.952H-38.7087M-55.7593 76.952H-72.8099M-55.7593 76.952L-51.1285 75.5504M-38.7087 76.952L-34.3866 75.5504M-38.7087 76.952H-21.6582M-42.3527 72.8939H-26.1958M-42.3527 72.8939L-38.1907 71.6342M-42.3527 72.8939H-58.5093M-42.3527 72.8939L-46.6626 74.1986M-26.1958 72.8939L-22.3114 71.6342M-26.1958 72.8939L-30.2185 74.1986M-26.1958 72.8939H-10.0389M-38.1907 71.6342H-22.3114M-38.1907 71.6342L-34.1691 70.417M-38.1907 71.6342H-54.07M-22.3114 71.6342H-6.43178M-22.3114 71.6342L-18.5578 70.417M-116.334 143.161L-105.87 138.411M-116.334 143.161L-127.539 148.249M-116.334 143.161H-84.7003M-116.334 143.161H-127.823M-105.87 138.411L-96.0758 133.964M-105.87 138.411H-75.2829M-105.87 138.411H-127.823M-106.082 125.873H-78.2565M-106.082 125.873L-97.1405 122.183M-106.082 125.873L-115.579 129.793M-106.082 125.873H-127.823M-78.2565 125.873L-70.1279 122.183M-78.2565 125.873L-86.8899 129.793M-78.2565 125.873H-50.4308M-97.1405 122.183H-70.1279M-97.1405 122.183H-124.153M-97.1405 122.183L-88.7063 118.701M-70.1279 122.183L-62.4602 118.701M-70.1279 122.183H-43.1149M-73.1975 112.3H-48.3611M-73.1975 112.3L-66.0513 109.351M-73.1975 112.3H-98.0335M-73.1975 112.3L-80.7378 115.413M-48.3611 112.3L-41.8647 109.351M-48.3611 112.3L-55.2164 115.413M-48.3611 112.3H-23.525M-66.0513 109.351H-41.8647M-66.0513 109.351H-90.2378M-66.0513 109.351L-59.2698 106.551M-41.8647 109.351L-35.6996 106.551M-41.8647 109.351H-17.6785M-46.6933 101.36H-24.2664M-46.6933 101.36L-40.8515 98.9494M-46.6933 101.36H-69.1198M-46.6933 101.36L-52.825 103.892M-24.2664 101.36L-18.956 98.9494M-24.2664 101.36L-29.8411 103.892M-24.2664 101.36H-1.83987M-40.8515 98.9494H-18.956M-40.8515 98.9494H-62.7471M-40.8515 98.9494L-35.2803 96.6499M-18.956 98.9494L-13.8911 96.6499M-18.956 98.9494H2.93953M-24.8766 92.3557H-4.43343M-24.8766 92.3557L-20.0126 90.3481M-24.8766 92.3557H-45.3202M-24.8766 92.3557L-29.961 94.4543M-4.43343 92.3557L-0.0112234 90.3481M-4.43343 92.3557L-9.0554 94.4543M-4.43343 92.3557H16.0098M-20.0126 90.3481H-0.0112234M-20.0126 90.3481H-40.0135M-20.0126 90.3481L-15.3544 88.4254M-0.0112234 90.3481L4.2235 88.4254M-0.0112234 90.3481H19.9898M-6.6056 84.8144H12.1766M-6.6056 84.8144L-2.49244 83.1167M-6.6056 84.8144H-25.3878M-6.6056 84.8144L-10.8892 86.5824M12.1766 84.8144L12.6527 84.5984L15.9159 83.1167M12.1766 84.8144L8.28271 86.5824M12.1766 84.8144H30.9592M-2.49244 83.1167H15.9159M-2.49244 83.1167H-20.9008M-2.49244 83.1167L1.46022 81.4852M15.9159 83.1167L19.5093 81.4852M15.9159 83.1167H34.3245M8.91957 78.4063H26.2908M8.91957 78.4063L12.4433 76.952M8.91957 78.4063H-8.45131M8.91957 78.4063L5.26127 79.9162M26.2908 78.4063L29.4939 76.952M26.2908 78.4063L25.0584 78.9659L22.9647 79.9162M26.2908 78.4063H43.6617M12.4433 76.952H29.4939M12.4433 76.952H-4.60725M12.4433 76.952L15.839 75.5504M29.4939 76.952L32.5809 75.5504M29.4939 76.952H46.5445M22.2746 72.8939H38.4315M22.2746 72.8939L25.3268 71.6342M22.2746 72.8939H6.11804M22.2746 72.8939L19.1142 74.1986M38.4315 72.8939L40.5217 71.9451L40.8646 71.7892L41.2064 71.6342M38.4315 72.8939L35.5583 74.1986M38.4315 72.8939H54.5885M25.3268 71.6342H41.2064M25.3268 71.6342L28.2758 70.417M25.3268 71.6342H9.4475M41.2064 71.6342H57.0857M41.2064 71.6342L43.8871 70.417M-104.872 197.28H-61.319M-104.872 197.28L-91.1584 188.385M-104.872 197.28L-119.942 207.055M-104.872 197.28L-127.823 197.281M-61.319 197.28L-49.5641 188.385M-61.319 197.28L-74.2359 207.055M-61.319 197.28H-17.7659M-91.1584 188.385H-49.5641M-91.1584 188.385L-78.625 180.256M-91.1584 188.385H-127.823M-49.5641 188.385L-38.8214 180.256M-49.5641 188.385H-7.97015M-56.5389 165.931H-19.8903M-56.5389 165.931L-46.7588 159.588M-56.5389 165.931H-93.1872M-56.5389 165.931L-67.1262 172.798M-19.8903 165.931L-11.5076 159.588M-19.8903 165.931L-28.9652 172.798M-19.8903 165.931H16.758M-46.7588 159.588H-11.5076M-46.7588 159.588H-82.0101M-46.7588 159.588L-37.6969 153.71M-11.5076 159.588L-3.74022 153.71M-11.5076 159.588H23.7437M-21.4335 143.161H10.1998M-21.4335 143.161L-14.1087 138.411M-21.4335 143.161H-53.0671M-21.4335 143.161L-29.2773 148.249M10.1998 143.161L16.4783 138.411M10.1998 143.161L3.47668 148.249M10.1998 143.161H41.833M-14.1087 138.411H16.4783M-14.1087 138.411H-44.696M-14.1087 138.411L-7.25305 133.964M16.4783 138.411L22.3545 133.964M16.4783 138.411H47.0652M5.22028 125.873H33.046M5.22028 125.873L10.9108 122.183M5.22028 125.873H-22.6051M5.22028 125.873L-0.822933 129.793M33.046 125.873L37.9234 122.183M33.046 125.873L27.8661 129.793M33.046 125.873H60.8717M10.9108 122.183H37.9234M10.9108 122.183H-16.1022M10.9108 122.183L16.2778 118.701M37.9234 122.183L42.5239 118.701M37.9234 122.183H64.9361M26.147 112.3H50.9834M26.147 112.3L30.6945 109.351M26.147 112.3H1.31099M26.147 112.3L21.3485 115.413M50.9834 112.3L54.8811 109.351M50.9834 112.3L46.8703 115.413M50.9834 112.3H75.8195M30.6945 109.351H54.8811M30.6945 109.351H6.50803M30.6945 109.351L35.0102 106.551M54.8811 109.351L58.5801 106.551M54.8811 109.351H79.0677M43.0135 101.36H65.4401M43.0135 101.36L46.7309 98.9494M43.0135 101.36H20.5867M43.0135 101.36L39.1114 103.892M65.4401 101.36L68.6265 98.9494M65.4401 101.36L62.0953 103.892M65.4401 101.36H87.8666M46.7309 98.9494H68.6265M46.7309 98.9494H24.835M46.7309 98.9494L50.2762 96.6499M68.6265 98.9494L71.6653 96.6499M68.6265 98.9494H90.522M56.8965 92.3557H77.3401M56.8965 92.3557L59.9921 90.3481M56.8965 92.3557H36.4533M56.8965 92.3557L53.6613 94.4543M77.3401 92.3557L79.9931 90.3481M77.3401 92.3557L74.5669 94.4543M77.3401 92.3557H97.7833M59.9921 90.3481H79.9931M59.9921 90.3481H39.9907M59.9921 90.3481L62.9565 88.4254M79.9931 90.3481L82.5341 88.4254M79.9931 90.3481H99.9944M68.5237 84.8144H87.3063M68.5237 84.8144L71.1412 83.1167M68.5237 84.8144H49.7415M68.5237 84.8144L65.7976 86.5824M87.3063 84.8144L87.0191 85.0314L84.9695 86.5824M87.3063 84.8144L89.5495 83.1167M87.3063 84.8144H106.089M71.1412 83.1167H89.5495M71.1412 83.1167H52.7329M71.1412 83.1167L73.6565 81.4852M89.5495 83.1167L91.7056 81.4852M89.5495 83.1167H107.958M78.4035 78.4063H95.7744M78.4035 78.4063L80.6457 76.952M78.4035 78.4063H61.0326M78.4035 78.4063L76.0756 79.9162M95.7744 78.4063L97.6962 76.952M95.7744 78.4063L95.0351 78.9659L94.5361 79.3434L93.7791 79.9162M95.7744 78.4063H113.145M80.6457 76.952H97.6962M80.6457 76.952H63.5951M80.6457 76.952L82.8066 75.5504M97.6962 76.952L98.399 76.4203L98.8621 76.0699L99.5488 75.5504M97.6962 76.952H114.747M86.9023 72.8939H103.059M86.9023 72.8939L88.3652 71.9451L88.8443 71.6342M86.9023 72.8939H70.7454M86.9023 72.8939L85.1461 74.0329L84.891 74.1986M103.059 72.8939L104.313 71.9451L104.519 71.7892L104.724 71.6342M103.059 72.8939L102.204 73.5404L101.335 74.1986M103.059 72.8939H119.216M88.8443 71.6342H104.724M88.8443 71.6342L90.7211 70.417M88.8443 71.6342H72.965M104.724 71.6342H120.603M104.724 71.6342L106.332 70.417M69.3405 197.28H112.894M69.3405 197.28L75.2178 188.385M69.3405 197.28H25.7874M69.3405 197.28L62.8821 207.055M112.894 197.28L116.812 188.385M112.894 197.28L108.588 207.055M112.894 197.28H156.447M75.2178 188.385H116.812M75.2178 188.385H33.6238M75.2178 188.385L80.5893 180.256M116.812 188.385L120.393 180.256M116.812 188.385H158.406M90.0549 165.931H126.703M90.0549 165.931L94.2462 159.588M90.0549 165.931H53.4062M90.0549 165.931L85.5172 172.798M126.703 165.931L129.497 159.588M126.703 165.931L123.678 172.798M126.703 165.931H163.352M94.2462 159.588H129.497M94.2462 159.588H58.995M94.2462 159.588L98.1299 153.71M129.497 159.588L132.087 153.71M129.497 159.588H164.749M105.1 143.161H136.733M105.1 143.161L108.239 138.411M105.1 143.161H73.4667M105.1 143.161L101.738 148.249M136.733 143.161L138.826 138.411M136.733 143.161L134.492 148.249M136.733 143.161H168.367M108.239 138.411H138.826M108.239 138.411H77.6522M108.239 138.411L111.177 133.964M138.826 138.411L140.785 133.964M138.826 138.411H169.413M116.523 125.873H144.349M116.523 125.873L118.962 122.183M116.523 125.873H88.6975M116.523 125.873L113.933 129.793M144.349 125.873L145.974 122.183M144.349 125.873L142.622 129.793M144.349 125.873H172.174M118.962 122.183H145.974M118.962 122.183H91.9491M118.962 122.183L121.262 118.701M145.974 122.183L147.508 118.701M145.974 122.183H172.987M125.492 112.3H150.328M125.492 112.3L127.44 109.351M125.492 112.3H100.656M125.492 112.3L123.435 115.413M150.328 112.3L151.627 109.351M150.328 112.3L148.957 115.413M150.328 112.3H175.164M127.44 109.351H151.627M127.44 109.351H103.254M127.44 109.351L129.29 106.551M151.627 109.351L152.86 106.551M151.627 109.351H175.813M132.72 101.36H155.147M132.72 101.36L134.313 98.9494M132.72 101.36H110.294M132.72 101.36L131.048 103.892M155.147 101.36L156.209 98.9494M155.147 101.36L154.032 103.892M155.147 101.36H177.573M134.313 98.9494H156.209M134.313 98.9494H112.418M134.313 98.9494L134.892 98.0745L135.833 96.6499M156.209 98.9494L157.222 96.6499M156.209 98.9494H178.104M138.67 92.3557H159.113M138.67 92.3557L139.997 90.3481M138.67 92.3557H118.227M138.67 92.3557L137.636 93.9209L137.283 94.4543M159.113 92.3557L159.45 91.5926L159.998 90.3481M159.113 92.3557L158.189 94.4543M159.113 92.3557H179.557M139.997 90.3481L140.158 90.1032L141.267 88.4254M139.997 90.3481H159.998M139.997 90.3481H119.995M159.998 90.3481L160.32 89.6174L160.426 89.3764L160.531 89.1369L160.845 88.4254M159.998 90.3481H179.999M143.653 84.8144H162.435M143.653 84.8144L144.219 83.957L144.36 83.7454L144.498 83.5346L144.637 83.3252L144.775 83.1167M143.653 84.8144H124.871M143.653 84.8144L142.485 86.5824M162.435 84.8144L162.999 83.5346L163.092 83.3252L163.183 83.1167M162.435 84.8144L161.657 86.5824M162.435 84.8144H181.218M144.775 83.1167H163.183M144.775 83.1167H126.366M144.775 83.1167L145.454 82.0895L145.587 81.887L145.853 81.4852M163.183 83.1167L163.636 82.0895L163.725 81.887L163.813 81.6856L163.902 81.4852M163.183 83.1167H181.592M147.887 78.4063H165.258M147.887 78.4063L148.848 76.952M147.887 78.4063H130.516M147.887 78.4063L147.641 78.7783L147.268 79.3434L146.89 79.9162M165.258 78.4063L165.176 78.5919L164.677 79.7243L164.593 79.9162M165.258 78.4063L165.899 76.952M165.258 78.4063H182.629M148.848 76.952H165.899M148.848 76.952H131.798M148.848 76.952L149.774 75.5504M165.899 76.952L166.133 76.4203L166.21 76.2447L166.287 76.0699L166.516 75.5504M165.899 76.952H182.949M151.53 72.8939H167.686M151.53 72.8939L152.157 71.9451L152.362 71.6342M151.53 72.8939H135.373M151.53 72.8939L151.21 73.3778L151.102 73.5404L150.994 73.7039L150.667 74.1986M167.686 72.8939L167.757 72.7341L167.897 72.4164L168.036 72.1015L168.241 71.6342M167.686 72.8939L167.401 73.5404L167.33 73.7039L167.185 74.0329L167.112 74.1986M167.686 72.8939H183.843M152.362 71.6342H168.241M152.362 71.6342L153.067 70.5669L153.166 70.417M152.362 71.6342H136.483M168.241 71.6342L168.309 71.4797L168.377 71.326L168.445 71.1729L168.512 71.0204L168.711 70.5669L168.778 70.417M168.241 71.6342H184.121M243.553 197.28H287.106M243.553 197.28L241.594 188.385M243.553 197.28H200M243.553 197.28L245.706 207.055M287.106 197.28L283.188 188.385M287.106 197.28L291.412 207.055M287.106 197.28H330.66M241.594 188.385H283.188M241.594 188.385H200M241.594 188.385L239.804 180.256M283.188 188.385L279.607 180.256M283.188 188.385H324.782M236.648 165.931H273.297M236.648 165.931L235.251 159.588M236.648 165.931H200M236.648 165.931L238.161 172.798M273.297 165.931L270.503 159.588M273.297 165.931L276.322 172.798M273.297 165.931H309.945M235.251 159.588H270.503M235.251 159.588H200M235.251 159.588L233.957 153.71M270.503 159.588L267.913 153.71M270.503 159.588H305.754M231.633 143.161H263.267M231.633 143.161L230.587 138.411M231.633 143.161H200M231.633 143.161L232.754 148.249M263.267 143.161L261.174 138.411M263.267 143.161L265.508 148.249M263.267 143.161H294.9M230.587 138.411H261.174M230.587 138.411H200M230.587 138.411L229.608 133.964M261.174 138.411L259.215 133.964M261.174 138.411H291.761M227.826 125.873H255.651M227.826 125.873L227.013 122.183M227.826 125.873H200M227.826 125.873L228.689 129.793M255.651 125.873L254.026 122.183M255.651 125.873L257.378 129.793M255.651 125.873H283.477M227.013 122.183H254.026M227.013 122.183H200M227.013 122.183L226.246 118.701M254.026 122.183L252.492 118.701M254.026 122.183H281.038M224.836 112.3H249.672M224.836 112.3L224.187 109.351M224.836 112.3H200M224.836 112.3L225.522 115.413M249.672 112.3L248.373 109.351M249.672 112.3L251.043 115.413M249.672 112.3H274.508M224.187 109.351H248.373M224.187 109.351H200M224.187 109.351L223.57 106.551M248.373 109.351L247.14 106.551M248.373 109.351H272.56M222.427 101.36H244.853M222.427 101.36L221.896 98.9494M222.427 101.36H200M222.427 101.36L222.984 103.892M244.853 101.36L243.791 98.9494M244.853 101.36L245.968 103.892M244.853 101.36H267.28M221.896 98.9494H243.791M221.896 98.9494H200M221.896 98.9494L221.389 96.6499M243.791 98.9494L242.778 96.6499M243.791 98.9494H265.687M220.443 92.3557H240.887M220.443 92.3557L220.001 90.3481M220.443 92.3557H200M220.443 92.3557L220.906 94.4543M240.887 92.3557L240.111 90.5944L240.002 90.3481M240.887 92.3557L241.811 94.4543M240.887 92.3557H261.33M220.001 90.3481L219.947 90.1032L219.578 88.4254M220.001 90.3481H240.002M220.001 90.3481H200M240.002 90.3481L239.68 89.6174L239.574 89.3764L239.469 89.1369L239.155 88.4254M240.002 90.3481H260.003M218.782 84.8144H237.565M218.782 84.8144L218.408 83.1167M218.782 84.8144H200M218.782 84.8144L218.926 85.4688L218.975 85.6893L219.024 85.9108L219.122 86.3574L219.172 86.5824M237.565 84.8144L237.001 83.5346L236.817 83.1167M237.565 84.8144L238.343 86.5824M237.565 84.8144H256.347M218.408 83.1167H236.817M218.408 83.1167H200M218.408 83.1167L218.049 81.4852M236.817 83.1167L236.365 82.0895L236.275 81.887L236.187 81.6856L236.098 81.4852M236.817 83.1167H255.225M217.371 78.4063H234.742M217.371 78.4063L217.051 76.952M217.371 78.4063H200M217.371 78.4063L217.704 79.9162M234.742 78.4063L234.824 78.5919L235.323 79.7243L235.407 79.9162M234.742 78.4063L234.101 76.952M234.742 78.4063H252.113M217.051 76.952H234.101M217.051 76.952H200M217.051 76.952L216.742 75.5504M234.101 76.952L233.867 76.4203L233.79 76.2447L233.713 76.0699L233.484 75.5504M234.101 76.952H251.152M216.157 72.8939H232.314M216.157 72.8939L215.879 71.6342M216.157 72.8939H200M216.157 72.8939L216.444 74.1986M232.314 72.8939L232.243 72.7341L232.103 72.4164L232.034 72.2585L231.896 71.9451L231.827 71.7892L231.759 71.6342M232.314 72.8939L232.599 73.5404L232.67 73.7039L232.815 74.0329L232.888 74.1986M232.314 72.8939H248.47M215.879 71.6342L215.846 71.4797L215.811 71.326L215.778 71.1729L215.611 70.417M215.879 71.6342H231.759M215.879 71.6342H200M231.759 71.6342H247.638M231.759 71.6342L231.623 71.326L231.555 71.1729L231.489 71.0204L231.289 70.5669L231.222 70.417M417.766 197.28H461.319M417.766 197.28L407.97 188.385M417.766 197.28H374.213M417.766 197.28L428.53 207.055M461.319 197.28L449.564 188.385M461.319 197.28L474.236 207.055M461.319 197.28H504.872M407.97 188.385H449.564M407.97 188.385H366.376M407.97 188.385L399.018 180.256M449.564 188.385L438.821 180.256M449.564 188.385H491.158M383.242 165.931H419.891M383.242 165.931L376.256 159.588M383.242 165.931H346.594M383.242 165.931L390.805 172.798M419.891 165.931L411.508 159.588M419.891 165.931L428.965 172.798M419.891 165.931H456.539M376.256 159.588H411.508M376.256 159.588H341.005M376.256 159.588L369.784 153.71M411.508 159.588L403.74 153.71M411.508 159.588H446.759M358.167 143.161H389.8M358.167 143.161L352.935 138.411M358.167 143.161H326.533M358.167 143.161L363.77 148.249M389.8 143.161L383.522 138.411M389.8 143.161L396.523 148.249M389.8 143.161H421.434M352.935 138.411H383.522M352.935 138.411H322.348M352.935 138.411L348.038 133.964M383.522 138.411L377.646 133.964M383.522 138.411H414.109M339.128 125.873H366.954M339.128 125.873L335.064 122.183M339.128 125.873H311.303M339.128 125.873L343.445 129.793M366.954 125.873L362.077 122.183M366.954 125.873L372.134 129.793M366.954 125.873H394.78M335.064 122.183H362.077M335.064 122.183H308.051M335.064 122.183L331.23 118.701M362.077 122.183L357.476 118.701M362.077 122.183H389.089M324.181 112.3H349.017M324.181 112.3L320.932 109.351M324.181 112.3H299.345M324.181 112.3L327.608 115.413M349.017 112.3L345.119 109.351M349.017 112.3L353.13 115.413M349.017 112.3H373.853M320.932 109.351H345.119M320.932 109.351H296.746M320.932 109.351L317.85 106.551M345.119 109.351L341.42 106.551M345.119 109.351H369.305M312.133 101.36H334.56M312.133 101.36L309.478 98.9494M312.133 101.36H289.707M312.133 101.36L314.921 103.892M334.56 101.36L331.374 98.9494M334.56 101.36L337.905 103.892M334.56 101.36H356.986M309.478 98.9494H331.374M309.478 98.9494H287.583M309.478 98.9494L306.946 96.6499M331.374 98.9494L328.335 96.6499M331.374 98.9494H353.269M302.217 92.3557L302.5 92.613L302.785 92.8716L304.528 94.4543M302.217 92.3557H322.66M302.217 92.3557L300.006 90.3481M302.217 92.3557H281.774M322.66 92.3557L320.007 90.3481M322.66 92.3557L325.433 94.4543M322.66 92.3557H343.103M300.006 90.3481H320.007M300.006 90.3481H280.005M300.006 90.3481L297.888 88.4254M320.007 90.3481L317.466 88.4254M320.007 90.3481H340.008M293.912 84.8144H312.694M293.912 84.8144L292.042 83.1167M293.912 84.8144H275.129M293.912 84.8144L295.859 86.5824M312.694 84.8144L311.281 83.7454L310.451 83.1167M312.694 84.8144L315.031 86.5824M312.694 84.8144H331.476M292.042 83.1167H310.451M292.042 83.1167H273.634M292.042 83.1167L290.466 81.6856L290.245 81.4852M310.451 83.1167L308.294 81.4852M310.451 83.1167H328.859M286.855 78.4063H304.226M286.855 78.4063L286.449 78.0375L285.253 76.952M286.855 78.4063H269.484M286.855 78.4063L287.265 78.7783L288.096 79.5333L288.517 79.9162M304.226 78.4063L302.304 76.952M304.226 78.4063L304.965 78.9659L305.464 79.3434L306.221 79.9162M304.226 78.4063H321.597M285.253 76.952H302.304M285.253 76.952H268.202M285.253 76.952L284.09 75.8958L283.709 75.5504M302.304 76.952L301.601 76.4203L301.138 76.0699L300.451 75.5504M302.304 76.952H319.354M280.784 72.8939H296.941M280.784 72.8939L279.911 72.1015L279.397 71.6342M280.784 72.8939H264.627M280.784 72.8939L282.221 74.1986M296.941 72.8939L295.687 71.9451L295.481 71.7892L295.276 71.6342M296.941 72.8939L297.796 73.5404L298.665 74.1986M296.941 72.8939H313.098M279.397 71.6342H295.276M279.397 71.6342L278.721 71.0204L278.387 70.7174L278.221 70.5669L278.057 70.417M279.397 71.6342H263.518M295.276 71.6342H311.156M295.276 71.6342L293.668 70.417M517.261 159.588H482.01M517.261 159.588L505.611 153.71M517.261 159.588H527.823M517.261 159.588L527.823 164.916M484.7 143.161H516.334M484.7 143.161L475.283 138.411M484.7 143.161H453.067M484.7 143.161L494.785 148.249M516.334 143.161L505.87 138.411M516.334 143.161L527.539 148.249M516.334 143.161H527.823M475.283 138.411H505.87M475.283 138.411H444.696M475.283 138.411L466.468 133.964M505.87 138.411L496.076 133.964M505.87 138.411H527.823M450.431 125.873H478.257M450.431 125.873L443.115 122.183M450.431 125.873H422.605M450.431 125.873L458.201 129.793M478.257 125.873L470.128 122.183M478.257 125.873L486.89 129.793M478.257 125.873H506.082M443.115 122.183H470.128M443.115 122.183H416.102M443.115 122.183L436.214 118.701M470.128 122.183L462.46 118.701M470.128 122.183H497.141M423.525 112.3H448.361M423.525 112.3L417.679 109.351M423.525 112.3H398.689M423.525 112.3L429.695 115.413M448.361 112.3L441.865 109.351M448.361 112.3L455.216 115.413M448.361 112.3H473.197M417.679 109.351H441.865M417.679 109.351H393.492M417.679 109.351L412.13 106.551M441.865 109.351L435.7 106.551M441.865 109.351H466.051M401.84 101.36H424.266M401.84 101.36L397.061 98.9494M401.84 101.36H379.413M401.84 101.36L406.857 103.892M424.266 101.36L418.956 98.9494M424.266 101.36L429.841 103.892M424.266 101.36H446.693M397.061 98.9494H418.956M397.061 98.9494H375.165M397.061 98.9494L392.502 96.6499M418.956 98.9494L413.891 96.6499M418.956 98.9494H440.852M383.99 92.3557H404.433M383.99 92.3557L380.01 90.3481M383.99 92.3557H363.547M383.99 92.3557L388.15 94.4543M404.433 92.3557L400.011 90.3481M404.433 92.3557L409.055 94.4543M404.433 92.3557H424.877M380.01 90.3481H400.011M380.01 90.3481H360.009M380.01 90.3481L376.199 88.4254M400.011 90.3481L395.777 88.4254M400.011 90.3481H420.013M369.041 84.8144H387.823M369.041 84.8144L365.676 83.1167M369.041 84.8144H350.259M369.041 84.8144L372.546 86.5824M387.823 84.8144L384.084 83.1167M387.823 84.8144L391.718 86.5824M387.823 84.8144H406.606M365.676 83.1167H384.084M365.676 83.1167H347.267M365.676 83.1167L362.442 81.4852M384.084 83.1167L380.491 81.4852M384.084 83.1167H402.492M356.338 78.4063H373.709M356.338 78.4063L353.456 76.952M356.338 78.4063H338.967M356.338 78.4063L357.076 78.7783L357.447 78.9659L359.332 79.9162M373.709 78.4063L370.506 76.952M373.709 78.4063L377.035 79.9162M373.709 78.4063H391.08M353.456 76.952H370.506M353.456 76.952H336.405M353.456 76.952L350.677 75.5504M370.506 76.952L367.419 75.5504M370.506 76.952H387.557M345.412 72.8939H361.568M345.412 72.8939L342.914 71.6342M345.412 72.8939H329.255M345.412 72.8939L347.998 74.1986M361.568 72.8939L359.478 71.9451L359.135 71.7892L358.794 71.6342M361.568 72.8939L364.442 74.1986M361.568 72.8939H377.725M342.914 71.6342H358.794M342.914 71.6342L340.799 70.5669L340.501 70.417M342.914 71.6342H327.035M358.794 71.6342H374.673M358.794 71.6342L356.113 70.417M522.87 112.3L514.424 109.351M522.87 112.3H498.034M522.87 112.3L527.823 114.03M522.87 112.3H527.823M514.424 109.351H490.238M514.424 109.351L506.41 106.551M514.424 109.351H527.823M491.546 101.36H513.973M491.546 101.36L484.643 98.9494M491.546 101.36H469.12M491.546 101.36L498.793 103.892M513.973 101.36L506.539 98.9494M513.973 101.36L521.778 103.892M513.973 101.36H527.823M484.643 98.9494H506.539M484.643 98.9494H462.747M484.643 98.9494L478.059 96.6499M506.539 98.9494L499.448 96.6499M506.539 98.9494H527.823M465.763 92.3557H486.207M465.763 92.3557L460.015 90.3481M465.763 92.3557H445.32M465.763 92.3557L471.772 94.4543M486.207 92.3557L480.016 90.3481M486.207 92.3557L492.677 94.4543M486.207 92.3557H506.65M460.015 90.3481H480.016M460.015 90.3481H440.014M460.015 90.3481L454.51 88.4254M480.016 90.3481L474.087 88.4254M480.016 90.3481H500.017M444.17 84.8144H462.952M444.17 84.8144L439.309 83.1167M444.17 84.8144H425.388M444.17 84.8144L449.233 86.5824M462.952 84.8144L457.718 83.1167M462.952 84.8144L468.404 86.5824M462.952 84.8144H481.735M439.309 83.1167H457.718M439.309 83.1167H420.901M439.309 83.1167L434.638 81.4852M457.718 83.1167L452.687 81.4852M457.718 83.1167H476.126M425.822 78.4063H443.193M425.822 78.4063L421.658 76.952M425.822 78.4063H408.451M425.822 78.4063L430.146 79.9162M443.193 78.4063L438.709 76.952M443.193 78.4063L447.849 79.9162M443.193 78.4063H460.564M421.658 76.952H438.709M421.658 76.952H404.607M421.658 76.952L417.645 75.5504M438.709 76.952L434.387 75.5504M438.709 76.952H455.759M410.039 72.8939H426.196M410.039 72.8939L406.432 71.6342M410.039 72.8939H393.882M410.039 72.8939L413.774 74.1986M426.196 72.8939L422.311 71.6342M426.196 72.8939L430.218 74.1986M426.196 72.8939H442.353M406.432 71.6342H422.311M406.432 71.6342L402.947 70.417M406.432 71.6342H390.553M422.311 71.6342H438.191M422.311 71.6342L418.558 70.417M519.299 84.8144L512.943 83.1167M519.299 84.8144H500.517M519.299 84.8144L525.92 86.5824M519.299 84.8144H527.823M512.943 83.1167H494.534M512.943 83.1167L506.834 81.4852M512.943 83.1167H527.823M495.306 78.4063H512.677M495.306 78.4063L489.86 76.952M495.306 78.4063H477.935M495.306 78.4063L500.96 79.9162M512.677 78.4063L506.911 76.952M512.677 78.4063L518.663 79.9162M512.677 78.4063H527.823M489.86 76.952H506.911M489.86 76.952H472.81M489.86 76.952L484.612 75.5504M506.911 76.952L501.354 75.5504M506.911 76.952H523.962M474.666 72.8939H490.823M474.666 72.8939L469.949 71.6342M474.666 72.8939H458.509M474.666 72.8939L479.551 74.1986M490.823 72.8939L485.829 71.6342M490.823 72.8939L495.995 74.1986M490.823 72.8939H506.98M469.949 71.6342H485.829M469.949 71.6342L465.392 70.417M469.949 71.6342H454.07M485.829 71.6342H501.708M485.829 71.6342L481.003 70.417M495.995 74.1986L501.354 75.5504M495.995 74.1986H512.439M495.995 74.1986H479.551M506.98 72.8939L501.708 71.6342M506.98 72.8939L512.439 74.1986M506.98 72.8939H523.137M501.708 71.6342H517.588M501.708 71.6342L496.614 70.417M481.003 70.417H465.392M481.003 70.417H496.614M481.003 70.417L476.338 69.2402M512.439 74.1986L518.096 75.5504M512.439 74.1986H527.823M523.137 72.8939L517.588 71.6342M523.137 72.8939L527.823 73.9578M523.137 72.8939H527.823M517.588 71.6342L512.226 70.417M517.588 71.6342H527.823M496.614 70.417H512.226M496.614 70.417L491.69 69.2402M512.226 70.417L507.042 69.2402M512.226 70.417H527.823M501.354 75.5504H518.096M501.354 75.5504H484.612M523.962 76.952L518.096 75.5504M523.962 76.952L527.823 77.8746M523.962 76.952H527.823M518.096 75.5504H527.823M484.612 75.5504H467.87M484.612 75.5504L479.551 74.1986M479.551 74.1986H463.107M518.663 79.9162L524.883 81.4852M518.663 79.9162H500.96M518.663 79.9162H527.823M527.876 78.4063H527.823M524.883 81.4852H506.834M524.883 81.4852L527.823 82.2268M524.883 81.4852H527.823M506.834 81.4852H488.785M506.834 81.4852L500.96 79.9162M500.96 79.9162H483.256M430.218 74.1986L434.387 75.5504M430.218 74.1986H446.663M430.218 74.1986H413.774M442.353 72.8939L438.191 71.6342M442.353 72.8939L446.663 74.1986M442.353 72.8939H458.509M438.191 71.6342H454.07M438.191 71.6342L434.169 70.417M418.558 70.417H434.169M418.558 70.417L414.929 69.2402M418.558 70.417H402.947M446.663 74.1986L451.129 75.5504M446.663 74.1986H463.107M458.509 72.8939L454.07 71.6342M458.509 72.8939L463.107 74.1986M454.07 71.6342L449.781 70.417M434.169 70.417H449.781M434.169 70.417L430.281 69.2402M463.107 74.1986L467.87 75.5504M465.392 70.417H449.781M465.392 70.417L460.985 69.2402M449.781 70.417L445.633 69.2402M434.387 75.5504H451.129M434.387 75.5504H417.645M455.759 76.952L451.129 75.5504M455.759 76.952L460.564 78.4063M455.759 76.952H472.81M451.129 75.5504H467.87M417.645 75.5504H400.903M417.645 75.5504L413.774 74.1986M467.87 75.5504L472.81 76.952M413.774 74.1986H397.33M460.564 78.4063L465.553 79.9162M460.564 78.4063H477.935M472.81 76.952L477.935 78.4063M477.935 78.4063L483.256 79.9162M447.849 79.9162L452.687 81.4852M447.849 79.9162H465.553M447.849 79.9162H430.146M465.553 79.9162L470.736 81.4852M465.553 79.9162H483.256M483.256 79.9162L488.785 81.4852M452.687 81.4852H470.736M452.687 81.4852H434.638M476.126 83.1167L470.736 81.4852M476.126 83.1167L481.735 84.8144M476.126 83.1167H494.534M470.736 81.4852H488.785M434.638 81.4852H416.589M434.638 81.4852L430.146 79.9162M488.785 81.4852L494.534 83.1167M430.146 79.9162H412.442M481.735 84.8144L487.576 86.5824M481.735 84.8144H500.517M494.534 83.1167L500.517 84.8144M500.517 84.8144L506.748 86.5824M468.404 86.5824L474.087 88.4254M468.404 86.5824H487.576M468.404 86.5824H449.233M487.576 86.5824L493.665 88.4254M487.576 86.5824H506.748M506.748 86.5824L513.243 88.4254M506.748 86.5824H525.92M525.92 86.5824H527.823M525.92 86.5824L527.823 87.0908M474.087 88.4254H493.665M474.087 88.4254H454.51M500.017 90.3481L493.665 88.4254M500.017 90.3481L506.65 92.3557M500.017 90.3481H520.018M493.665 88.4254H513.243M454.51 88.4254H434.932M454.51 88.4254L449.233 86.5824M513.243 88.4254L520.018 90.3481M513.243 88.4254H527.823M449.233 86.5824H430.061M506.65 92.3557L513.583 94.4543M506.65 92.3557H527.093M520.018 90.3481L527.093 92.3557M520.018 90.3481H527.823M527.926 88.4254H527.823M527.093 92.3557L527.823 92.5629M527.093 92.3557H527.823M492.677 94.4543L499.448 96.6499M492.677 94.4543H513.583M492.677 94.4543H471.772M513.583 94.4543L520.837 96.6499M513.583 94.4543H527.823M528 92.613L527.823 92.5629M499.448 96.6499H520.837M499.448 96.6499H478.059M520.837 96.6499H527.823M520.837 96.6499L527.823 98.7646M478.059 96.6499H456.669M478.059 96.6499L471.772 94.4543M471.772 94.4543H450.867M521.778 103.892H498.793M521.778 103.892L527.823 105.852M521.778 103.892H527.823M527.99 101.36H527.823M498.793 103.892H475.809M498.793 103.892L506.41 106.551M527.89 105.874L527.823 105.852M364.442 74.1986L367.419 75.5504M364.442 74.1986H380.886M364.442 74.1986H347.998M377.725 72.8939L374.673 71.6342M377.725 72.8939L380.886 74.1986M377.725 72.8939H393.882M374.673 71.6342H390.553M374.673 71.6342L371.724 70.417M356.113 70.417H371.724M356.113 70.417L355.131 69.9711L353.521 69.2402M356.113 70.417H340.501M380.886 74.1986L384.161 75.5504M380.886 74.1986H397.33M393.882 72.8939L390.553 71.6342M393.882 72.8939L397.33 74.1986M390.553 71.6342L387.335 70.417M371.724 70.417H387.335M371.724 70.417L368.873 69.2402M397.33 74.1986L400.903 75.5504M402.947 70.417L399.577 69.2402M402.947 70.417H387.335M387.335 70.417L386.941 70.2676L386.157 69.9711L384.225 69.2402M367.419 75.5504H384.161M367.419 75.5504H350.677M387.557 76.952L384.161 75.5504M387.557 76.952L391.08 78.4063M387.557 76.952H404.607M384.161 75.5504H400.903M350.677 75.5504H333.935M350.677 75.5504L347.998 74.1986M400.903 75.5504L404.607 76.952M347.998 74.1986H331.553M391.08 78.4063L394.739 79.9162M391.08 78.4063H408.451M404.607 76.952L405.08 77.1307L408.451 78.4063M408.451 78.4063L412.442 79.9162M377.035 79.9162L377.46 80.1092L380.491 81.4852M377.035 79.9162H394.739M377.035 79.9162H359.332M394.739 79.9162L398.54 81.4852M394.739 79.9162H412.442M412.442 79.9162L416.589 81.4852M380.491 81.4852H398.54M380.491 81.4852H362.442M402.492 83.1167L398.54 81.4852M402.492 83.1167L406.606 84.8144M402.492 83.1167H420.901M398.54 81.4852H416.589M362.442 81.4852H344.393M362.442 81.4852L359.332 79.9162M416.589 81.4852L420.901 83.1167M359.332 79.9162H341.628M406.606 84.8144L410.889 86.5824M406.606 84.8144H425.388M420.901 83.1167L425.388 84.8144M425.388 84.8144L430.061 86.5824M391.718 86.5824L395.777 88.4254M391.718 86.5824H410.889M391.718 86.5824H372.546M410.889 86.5824L415.354 88.4254M410.889 86.5824H430.061M430.061 86.5824L434.932 88.4254M395.777 88.4254H415.354M395.777 88.4254H376.199M420.013 90.3481L415.354 88.4254M420.013 90.3481L424.877 92.3557M420.013 90.3481H440.014M415.354 88.4254H434.932M376.199 88.4254H356.621M376.199 88.4254L372.546 86.5824M434.932 88.4254L440.014 90.3481M372.546 86.5824H353.374M424.877 92.3557L429.961 94.4543M424.877 92.3557H445.32M440.014 90.3481L445.32 92.3557M445.32 92.3557L450.867 94.4543M409.055 94.4543L413.891 96.6499M409.055 94.4543H429.961M409.055 94.4543H388.15M429.961 94.4543L435.28 96.6499M429.961 94.4543H450.867M450.867 94.4543L456.669 96.6499M413.891 96.6499H435.28M413.891 96.6499H392.502M440.852 98.9494L435.28 96.6499M440.852 98.9494L446.693 101.36M440.852 98.9494H462.747M435.28 96.6499H456.669M392.502 96.6499H371.113M392.502 96.6499L388.15 94.4543M456.669 96.6499L462.747 98.9494M388.15 94.4543H367.244M446.693 101.36L452.825 103.892M446.693 101.36H469.12M462.747 98.9494L469.12 101.36M469.12 101.36L475.809 103.892M429.841 103.892L435.7 106.551M429.841 103.892H452.825M429.841 103.892H406.857M452.825 103.892L459.27 106.551M452.825 103.892H475.809M475.809 103.892L482.84 106.551M435.7 106.551H459.27M435.7 106.551H412.13M466.051 109.351L459.27 106.551M466.051 109.351L473.197 112.3M466.051 109.351H490.238M459.27 106.551H482.84M412.13 106.551H388.56M412.13 106.551L406.857 103.892M482.84 106.551L490.238 109.351M482.84 106.551H506.41M406.857 103.892H383.873M473.197 112.3L480.738 115.413M473.197 112.3H498.034M490.238 109.351L498.034 112.3M506.41 106.551H527.823M498.034 112.3L506.26 115.413M455.216 115.413L462.46 118.701M455.216 115.413H480.738M455.216 115.413H429.695M480.738 115.413L488.706 118.701M480.738 115.413H506.26M506.26 115.413L514.952 118.701M506.26 115.413H527.823M462.46 118.701H488.706M462.46 118.701H436.214M497.141 122.183L488.706 118.701M497.141 122.183L506.082 125.873M497.141 122.183H524.153M488.706 118.701H514.952M436.214 118.701H409.968M436.214 118.701L429.695 115.413M514.952 118.701L524.153 122.183M514.952 118.701H527.823M429.695 115.413H404.173M506.082 125.873L515.579 129.793M506.082 125.873H527.823M524.153 122.183H527.823M524.153 122.183L527.823 123.571M486.89 129.793L496.076 133.964M486.89 129.793H515.579M486.89 129.793H458.201M515.579 129.793L525.683 133.964M515.579 129.793H527.823M496.076 133.964H525.683M496.076 133.964H466.468M525.683 133.964L527.823 134.847M525.683 133.964H527.823M466.468 133.964H436.861M466.468 133.964L458.201 129.793M458.201 129.793H429.512M527.539 148.249H494.785M527.539 148.249H527.823M527.539 148.249L527.823 148.378M494.785 148.249H462.031M494.785 148.249L505.611 153.71M298.665 74.1986L299.327 74.6997L299.55 74.8684L300.451 75.5504M298.665 74.1986H315.109M298.665 74.1986H282.221M313.098 72.8939L311.635 71.9451L311.156 71.6342M313.098 72.8939L314.854 74.0329L315.109 74.1986M313.098 72.8939H329.255M311.156 71.6342H327.035M311.156 71.6342L309.279 70.417M293.668 70.417H309.279M293.668 70.417L293.078 69.9711L292.113 69.2402M293.668 70.417H278.057M315.109 74.1986L315.623 74.5319L317.193 75.5504M315.109 74.1986H331.553M329.255 72.8939L327.035 71.6342M329.255 72.8939L331.553 74.1986M327.035 71.6342L325.419 70.7174L324.89 70.417M309.279 70.417H324.89M309.279 70.417L307.465 69.2402M331.553 74.1986L333.935 75.5504M340.501 70.417L340.206 70.2676L338.169 69.2402M340.501 70.417H324.89M324.89 70.417L324.104 69.9711L322.817 69.2402M300.451 75.5504H317.193M300.451 75.5504H283.709M319.354 76.952L317.193 75.5504M319.354 76.952L321.597 78.4063M319.354 76.952H336.405M317.193 75.5504H333.935M283.709 75.5504H266.968M283.709 75.5504L282.221 74.1986M333.935 75.5504L336.405 76.952M282.221 74.1986H265.777M321.597 78.4063L323.041 79.3434L323.334 79.5333L323.924 79.9162M321.597 78.4063H338.967M336.405 76.952L338.967 78.4063M338.967 78.4063L341.628 79.9162M306.221 79.9162L308.294 81.4852M306.221 79.9162H323.924M306.221 79.9162H288.517M323.924 79.9162L326.344 81.4852M323.924 79.9162H341.628M341.628 79.9162L344.393 81.4852M308.294 81.4852H326.344M308.294 81.4852H290.245M328.859 83.1167L327.275 82.0895L326.963 81.887L326.344 81.4852M328.859 83.1167L331.476 84.8144M328.859 83.1167H347.267M326.344 81.4852H344.393M290.245 81.4852H272.196M290.245 81.4852L288.517 79.9162M344.393 81.4852L347.267 83.1167M288.517 79.9162H270.814M331.476 84.8144L334.202 86.5824M331.476 84.8144H350.259M347.267 83.1167L350.259 84.8144M350.259 84.8144L353.374 86.5824M315.031 86.5824L316.236 87.4942L316.541 87.7253L317.466 88.4254M315.031 86.5824H334.202M315.031 86.5824H295.859M334.202 86.5824L337.044 88.4254M334.202 86.5824H353.374M353.374 86.5824L356.621 88.4254M317.466 88.4254H337.044M317.466 88.4254H297.888M340.008 90.3481L337.044 88.4254M340.008 90.3481L343.103 92.3557M340.008 90.3481H360.009M337.044 88.4254H356.621M297.888 88.4254H278.311M297.888 88.4254L297.373 87.9574L295.859 86.5824M356.621 88.4254L360.009 90.3481M295.859 86.5824H276.687M343.103 92.3557L346.339 94.4543M343.103 92.3557H363.547M360.009 90.3481L363.547 92.3557M363.547 92.3557L367.244 94.4543M325.433 94.4543L328.335 96.6499M325.433 94.4543H346.339M325.433 94.4543H304.528M346.339 94.4543L349.724 96.6499M346.339 94.4543H367.244M367.244 94.4543L371.113 96.6499M328.335 96.6499H349.724M328.335 96.6499H306.946M353.269 98.9494L349.724 96.6499M353.269 98.9494L356.986 101.36M353.269 98.9494H375.165M349.724 96.6499H371.113M306.946 96.6499H285.556M306.946 96.6499L304.528 94.4543M371.113 96.6499L375.165 98.9494M304.528 94.4543H283.622M356.986 101.36L360.889 103.892M356.986 101.36H379.413M375.165 98.9494L379.413 101.36M379.413 101.36L383.873 103.892M337.905 103.892L341.42 106.551M337.905 103.892H360.889M337.905 103.892H314.921M360.889 103.892L364.99 106.551M360.889 103.892H383.873M383.873 103.892L388.56 106.551M341.42 106.551H364.99M341.42 106.551H317.85M369.305 109.351L364.99 106.551M369.305 109.351L373.853 112.3M369.305 109.351H393.492M364.99 106.551H388.56M317.85 106.551H294.28M317.85 106.551L314.921 103.892M388.56 106.551L393.492 109.351M314.921 103.892H291.936M373.853 112.3L378.651 115.413M373.853 112.3H398.689M393.492 109.351L398.689 112.3M398.689 112.3L404.173 115.413M353.13 115.413L357.476 118.701M353.13 115.413H378.651M353.13 115.413H327.608M378.651 115.413L383.722 118.701M378.651 115.413H404.173M404.173 115.413L409.968 118.701M357.476 118.701H383.722M357.476 118.701H331.23M389.089 122.183L383.722 118.701M389.089 122.183L394.78 125.873M389.089 122.183H416.102M383.722 118.701H409.968M331.23 118.701H304.984M331.23 118.701L327.608 115.413M409.968 118.701L416.102 122.183M327.608 115.413H302.087M394.78 125.873L400.823 129.793M394.78 125.873H422.605M416.102 122.183L422.605 125.873M422.605 125.873L429.512 129.793M372.134 129.793L377.646 133.964M372.134 129.793H400.823M372.134 129.793H343.445M400.823 129.793L407.253 133.964M400.823 129.793H429.512M429.512 129.793L436.861 133.964M377.646 133.964H407.253M377.646 133.964H348.038M414.109 138.411L407.253 133.964M414.109 138.411L421.434 143.161M414.109 138.411H444.696M407.253 133.964H436.861M348.038 133.964H318.43M348.038 133.964L343.445 129.793M436.861 133.964L444.696 138.411M343.445 129.793H314.756M421.434 143.161L429.277 148.249M421.434 143.161H453.067M444.696 138.411L453.067 143.161M453.067 143.161L462.031 148.249M396.523 148.249L403.74 153.71M396.523 148.249H429.277M396.523 148.249H363.77M429.277 148.249L437.697 153.71M429.277 148.249H462.031M462.031 148.249L471.654 153.71M403.74 153.71H437.697M403.74 153.71H369.784M446.759 159.588L437.697 153.71M446.759 159.588L456.539 165.931M446.759 159.588H482.01M437.697 153.71H471.654M369.784 153.71H335.827M369.784 153.71L363.77 148.249M471.654 153.71L482.01 159.588M471.654 153.71H505.611M363.77 148.249H331.016M456.539 165.931L467.126 172.798M456.539 165.931H493.187M482.01 159.588L493.187 165.931M505.611 153.71H527.823M493.187 165.931L505.287 172.798M493.187 165.931H527.823M428.965 172.798L438.821 180.256M428.965 172.798H467.126M428.965 172.798H390.805M467.126 172.798L478.625 180.256M467.126 172.798H505.287M505.287 172.798L518.429 180.256M505.287 172.798H527.823M438.821 180.256H478.625M438.821 180.256H399.018M491.158 188.385L478.625 180.256M491.158 188.385L504.872 197.28M491.158 188.385H527.823M478.625 180.256H518.429M399.018 180.256H359.214M399.018 180.256L390.805 172.798M518.429 180.256H527.823M518.429 180.256L527.823 185.588M390.805 172.798H352.643M504.872 197.28L519.942 207.055M504.872 197.28H527.823M474.236 207.055L488.496 217.846M474.236 207.055H519.942M474.236 207.055H428.53M519.942 207.055L527.823 212.167M519.942 207.055H527.823M488.496 217.846H440.413M488.496 217.846L527.823 217.846M440.413 217.846H392.331M440.413 217.846L428.53 207.055M428.53 207.055H382.824M232.888 74.1986L232.962 74.3649L233.035 74.5319L233.109 74.6997L233.183 74.8684L233.408 75.3786L233.484 75.5504M232.888 74.1986H249.333M232.888 74.1986H216.444M248.47 72.8939L247.843 71.9451L247.638 71.6342M248.47 72.8939L249.006 73.7039L249.333 74.1986M248.47 72.8939H264.627M247.638 71.6342H263.518M247.638 71.6342L247.032 70.7174L246.834 70.417M231.222 70.417L231.157 70.2676L230.897 69.6768L230.704 69.2402M231.222 70.417H246.834M231.222 70.417H215.611M249.333 74.1986L249.442 74.3649L249.553 74.5319L249.664 74.6997L249.775 74.8684L250.226 75.5504M249.333 74.1986H265.777M264.627 72.8939L263.791 71.9451L263.518 71.6342M264.627 72.8939L265.777 74.1986M263.518 71.6342L262.977 71.0204L262.577 70.5669L262.445 70.417M246.834 70.417L246.735 70.2676L246.539 69.9711L246.345 69.6768L246.248 69.5306L246.056 69.2402M246.834 70.417H262.445M265.777 74.1986L266.666 75.2078L266.968 75.5504M278.057 70.417L277.081 69.5306L276.761 69.2402M278.057 70.417H262.445M262.445 70.417L261.536 69.3851L261.408 69.2402M233.484 75.5504H250.226M233.484 75.5504H216.742M251.152 76.952L250.226 75.5504M251.152 76.952L252.113 78.4063M251.152 76.952H268.202M250.226 75.5504H266.968M216.742 75.5504H200M216.742 75.5504L216.444 74.1986M266.968 75.5504L268.202 76.952M216.444 74.1986H200M252.113 78.4063L252.359 78.7783L252.732 79.3434L253.111 79.9162M252.113 78.4063H269.484M268.202 76.952L268.36 77.1307L269.484 78.4063M269.484 78.4063L269.647 78.5919L269.812 78.7783L269.977 78.9659L270.814 79.9162M235.407 79.9162L236.098 81.4852M235.407 79.9162H253.111M235.407 79.9162H217.704M253.111 79.9162L254.147 81.4852M253.111 79.9162H270.814M270.814 79.9162L271.846 81.0872L272.021 81.2858L272.196 81.4852M236.098 81.4852H254.147M236.098 81.4852H218.049M255.225 83.1167L255.363 83.3252L255.502 83.5346L255.641 83.7454L256.347 84.8144M255.225 83.1167L254.681 82.2928L254.546 82.0895L254.413 81.887L254.147 81.4852M255.225 83.1167H273.634M254.147 81.4852H272.196M218.049 81.4852H200M218.049 81.4852L217.704 79.9162M272.196 81.4852L273.634 83.1167M217.704 79.9162H200M256.347 84.8144L257.367 86.3574L257.515 86.5824M256.347 84.8144H275.129M273.634 83.1167L274.002 83.5346L275.129 84.8144M275.129 84.8144L275.706 85.4688L276.687 86.5824M238.343 86.5824L238.745 87.4942L238.847 87.7253L239.155 88.4254M238.343 86.5824H257.515M238.343 86.5824H219.172M257.515 86.5824L258.733 88.4254M257.515 86.5824H276.687M276.687 86.5824L278.311 88.4254M239.155 88.4254H258.733M239.155 88.4254H219.578M260.003 90.3481L258.733 88.4254M260.003 90.3481L261.33 92.3557M260.003 90.3481H280.005M258.733 88.4254H278.311M219.578 88.4254H200M219.578 88.4254L219.474 87.9574L219.272 87.0359L219.172 86.5824M278.311 88.4254L280.005 90.3481M219.172 86.5824H200M261.33 92.3557L262.364 93.9209L262.717 94.4543M261.33 92.3557H281.774M280.005 90.3481L281.774 92.3557M281.774 92.3557L282.687 93.3933L283.622 94.4543M241.811 94.4543L242.778 96.6499M241.811 94.4543H262.717M241.811 94.4543H220.906M262.717 94.4543L264.167 96.6499M262.717 94.4543H283.622M283.622 94.4543L285.556 96.6499M242.778 96.6499H264.167M242.778 96.6499H221.389M265.687 98.9494L265.3 98.3645L264.167 96.6499M265.687 98.9494L267.28 101.36M265.687 98.9494H287.583M264.167 96.6499H285.556M221.389 96.6499H200M221.389 96.6499L220.906 94.4543M285.556 96.6499L287.583 98.9494M220.906 94.4543H200M267.28 101.36L268.952 103.892M267.28 101.36H289.707M287.583 98.9494L289.707 101.36M289.707 101.36L291.936 103.892M245.968 103.892L247.14 106.551M245.968 103.892H268.952M245.968 103.892H222.984M268.952 103.892L270.71 106.551M268.952 103.892H291.936M291.936 103.892L294.28 106.551M247.14 106.551H270.71M247.14 106.551H223.57M272.56 109.351L270.71 106.551M272.56 109.351L274.508 112.3M272.56 109.351H296.746M270.71 106.551H294.28M223.57 106.551H200M223.57 106.551L223.056 104.217L222.984 103.892M294.28 106.551L296.746 109.351M222.984 103.892H200M274.508 112.3L276.565 115.413M274.508 112.3H299.345M296.746 109.351L298.682 111.548L299.345 112.3M299.345 112.3L302.087 115.413M251.043 115.413L252.492 118.701M251.043 115.413H276.565M251.043 115.413H225.522M276.565 115.413L278.738 118.701M276.565 115.413H302.087M302.087 115.413L304.984 118.701M252.492 118.701H278.738M252.492 118.701H226.246M281.038 122.183L278.738 118.701M281.038 122.183L283.477 125.873M281.038 122.183H308.051M278.738 118.701H304.984M226.246 118.701H200M226.246 118.701L225.522 115.413M304.984 118.701L308.051 122.183M225.522 115.413H200M283.477 125.873L286.067 129.793M283.477 125.873H311.303M308.051 122.183L311.303 125.873M311.303 125.873L314.756 129.793M257.378 129.793L259.215 133.964M257.378 129.793H286.067M257.378 129.793H228.689M286.067 129.793L288.823 133.964M286.067 129.793H314.756M314.756 129.793L318.43 133.964M259.215 133.964H288.823M259.215 133.964H229.608M291.761 138.411L288.823 133.964M291.761 138.411L294.9 143.161M291.761 138.411H322.348M288.823 133.964H318.43M229.608 133.964H200M229.608 133.964L228.689 129.793M318.43 133.964L322.348 138.411M228.689 129.793H200M294.9 143.161L298.262 148.249M294.9 143.161H326.533M322.348 138.411L326.533 143.161M326.533 143.161L331.016 148.249M265.508 148.249L267.913 153.71M265.508 148.249H298.262M265.508 148.249H232.754M298.262 148.249L301.87 153.71M298.262 148.249H331.016M331.016 148.249L335.827 153.71M267.913 153.71H301.87M267.913 153.71H233.957M305.754 159.588L301.87 153.71M305.754 159.588L309.945 165.931M305.754 159.588H341.005M301.87 153.71H335.827M233.957 153.71H200M233.957 153.71L232.754 148.249M335.827 153.71L341.005 159.588M232.754 148.249H200M309.945 165.931L314.483 172.798M309.945 165.931H346.594M341.005 159.588L346.594 165.931M346.594 165.931L352.643 172.798M276.322 172.798L279.607 180.256M276.322 172.798H314.483M276.322 172.798H238.161M314.483 172.798L319.411 180.256M314.483 172.798H352.643M352.643 172.798L359.214 180.256M279.607 180.256H319.411M279.607 180.256H239.804M324.782 188.385L319.411 180.256M324.782 188.385L330.66 197.28M324.782 188.385H366.376M319.411 180.256H359.214M239.804 180.256H200M239.804 180.256L238.161 172.798M359.214 180.256L366.376 188.385M238.161 172.798H200M330.66 197.28L337.118 207.055M330.66 197.28H374.213M366.376 188.385L374.213 197.28M374.213 197.28L382.824 207.055M291.412 207.055L296.165 217.846M291.412 207.055H337.118M291.412 207.055H245.706M337.118 207.055L344.248 217.846M337.118 207.055H382.824M382.824 207.055L392.331 217.846M344.248 217.846H296.165M344.248 217.846H392.331M296.165 217.846H248.083M248.083 217.846H200M248.083 217.846L245.706 207.055M245.706 207.055H200M167.112 74.1986L167.038 74.3649L166.965 74.5319L166.891 74.6997L166.817 74.8684L166.667 75.2078L166.592 75.3786L166.516 75.5504M167.112 74.1986H183.556M167.112 74.1986H150.667M183.843 72.8939L184.121 71.6342M183.843 72.8939L183.556 74.1986M183.843 72.8939H200M184.121 71.6342L184.155 71.4797L184.189 71.326L184.222 71.1729L184.389 70.417M184.121 71.6342H200M168.778 70.417L168.843 70.2676L169.103 69.6768L169.296 69.2402M168.778 70.417H184.389M168.778 70.417H153.166M183.556 74.1986L183.519 74.3649L183.483 74.5319L183.445 74.6997L183.258 75.5504M183.556 74.1986H200M200 72.8939V71.6342M200 72.8939V74.1986M200 71.6342V70.417M184.389 70.417H200M184.389 70.417L184.487 69.9711L184.52 69.8236L184.648 69.2402M200 74.1986V75.5504M215.611 70.417L215.513 69.9711L215.48 69.8236L215.448 69.6768L215.416 69.5306L215.384 69.3851L215.352 69.2402M215.611 70.417H200M200 70.417V69.2402M166.516 75.5504H183.258M166.516 75.5504H149.774M182.949 76.952L182.91 77.1307L182.871 77.3104L182.629 78.4063M182.949 76.952L183.258 75.5504M182.949 76.952H200M183.258 75.5504H200M149.774 75.5504H133.033M149.774 75.5504L150 75.2078L150.113 75.0378L150.225 74.8684L150.336 74.6997L150.447 74.5319L150.558 74.3649L150.667 74.1986M200 75.5504V76.952M150.667 74.1986H134.223M182.629 78.4063L182.297 79.9162M182.629 78.4063H200M200 76.952V78.4063M200 78.4063V79.9162M164.593 79.9162L163.902 81.4852M164.593 79.9162H182.297M164.593 79.9162H146.89M182.297 79.9162L181.951 81.4852M182.297 79.9162H200M200 79.9162V81.4852M163.902 81.4852H181.951M163.902 81.4852H145.853M181.592 83.1167L181.951 81.4852M181.592 83.1167L181.218 84.8144M181.592 83.1167H200M181.951 81.4852H200M145.853 81.4852H127.804M145.853 81.4852L146.89 79.9162M200 81.4852V83.1167M146.89 79.9162H129.186M181.218 84.8144L181.074 85.4688L180.927 86.1335L180.828 86.5824M181.218 84.8144H200M200 83.1167V84.8144M200 84.8144V86.5824M161.657 86.5824L161.255 87.4942L161.153 87.7253L160.845 88.4254M161.657 86.5824H180.828M161.657 86.5824H142.485M180.828 86.5824L180.728 87.0359L180.526 87.9574L180.422 88.4254M180.828 86.5824H200M200 86.5824V88.4254M160.845 88.4254H180.422M160.845 88.4254H141.267M179.999 90.3481L180.053 90.1032L180.422 88.4254M179.999 90.3481L179.557 92.3557M179.999 90.3481H200M180.422 88.4254H200M141.267 88.4254H121.689M141.267 88.4254L142.485 86.5824M200 88.4254V90.3481M142.485 86.5824H123.313M179.557 92.3557L179.094 94.4543M179.557 92.3557H200M200 90.3481V92.3557M200 92.3557V94.4543M158.189 94.4543L157.222 96.6499M158.189 94.4543H179.094M158.189 94.4543H137.283M179.094 94.4543L178.611 96.6499M179.094 94.4543H200M200 94.4543V96.6499M157.222 96.6499H178.611M157.222 96.6499H135.833M178.104 98.9494L178.611 96.6499M178.104 98.9494L177.573 101.36M178.104 98.9494H200M178.611 96.6499H200M135.833 96.6499H114.444M135.833 96.6499L137.283 94.4543M200 96.6499V98.9494M137.283 94.4543H116.378M177.573 101.36L177.016 103.892M177.573 101.36H200M200 98.9494V101.36M200 101.36V103.892M154.032 103.892L152.86 106.551M154.032 103.892H177.016M154.032 103.892H131.048M177.016 103.892L176.43 106.551M177.016 103.892H200M200 103.892V106.551M152.86 106.551H176.43M152.86 106.551H129.29M175.813 109.351L176.43 106.551M175.813 109.351L175.164 112.3M175.813 109.351H200M176.43 106.551H200M129.29 106.551H105.72M129.29 106.551L131.048 103.892M200 106.551V109.351M131.048 103.892H108.064M175.164 112.3L174.478 115.413M175.164 112.3H200M200 109.351V112.3M200 112.3V115.413M148.957 115.413L147.508 118.701M148.957 115.413H174.478M148.957 115.413H123.435M174.478 115.413L173.754 118.701M174.478 115.413H200M200 115.413V118.701M147.508 118.701H173.754M147.508 118.701H121.262M172.987 122.183L173.754 118.701M172.987 122.183L172.174 125.873M172.987 122.183H200M173.754 118.701H200M121.262 118.701H95.0159M121.262 118.701L123.435 115.413M200 118.701V122.183M123.435 115.413H97.9134M172.174 125.873L171.311 129.793M172.174 125.873H200M200 122.183V125.873M200 125.873V129.793M142.622 129.793L140.785 133.964M142.622 129.793H171.311M142.622 129.793H113.933M171.311 129.793L170.392 133.964M171.311 129.793H200M200 129.793V133.964M140.785 133.964H170.392M140.785 133.964H111.177M169.413 138.411L170.392 133.964M169.413 138.411L168.367 143.161M169.413 138.411H200M170.392 133.964H200M111.177 133.964H81.5697M111.177 133.964L113.933 129.793M200 133.964V138.411M113.933 129.793H85.2441M168.367 143.161L167.246 148.249M168.367 143.161H200M200 138.411V143.161M200 143.161V148.249M134.492 148.249L132.087 153.71M134.492 148.249H167.246M134.492 148.249H101.738M167.246 148.249L166.043 153.71M167.246 148.249H200M200 148.249V153.71M132.087 153.71H166.043M132.087 153.71H98.1299M164.749 159.588L166.043 153.71M164.749 159.588L163.352 165.931M164.749 159.588H200M166.043 153.71H200M98.1299 153.71H64.1732M98.1299 153.71L101.738 148.249M200 153.71V159.588M101.738 148.249H68.9844M163.352 165.931L161.839 172.798M163.352 165.931H200M200 159.588V165.931M200 165.931V172.798M123.678 172.798L120.393 180.256M123.678 172.798H161.839M123.678 172.798H85.5172M161.839 172.798L160.196 180.256M161.839 172.798H200M200 172.798V180.256M120.393 180.256H160.196M120.393 180.256H80.5893M158.406 188.385L160.196 180.256M158.406 188.385L156.447 197.28M158.406 188.385H200M160.196 180.256H200M80.5893 180.256H40.7857M80.5893 180.256L85.5172 172.798M200 180.256V188.385M85.5172 172.798H47.3565M156.447 197.28L154.294 207.055M156.447 197.28H200M200 188.385V197.28M200 197.28V207.055M108.588 207.055L103.835 217.846M108.588 207.055H154.294M108.588 207.055H62.8821M154.294 207.055L151.917 217.846M154.294 207.055H200M200 207.055V217.846M151.917 217.846H103.835M151.917 217.846H200M103.835 217.846H55.7519M55.7519 217.846H7.66907M55.7519 217.846L62.8821 207.055M62.8821 207.055H17.1759M101.335 74.1986L100.45 74.8684L99.5488 75.5504M101.335 74.1986H117.779M101.335 74.1986H84.891M119.216 72.8939L120.603 71.6342M119.216 72.8939L117.779 74.1986M119.216 72.8939H135.373M120.603 71.6342H136.483M120.603 71.6342L121.613 70.7174L121.944 70.417M106.332 70.417H121.944M106.332 70.417L106.922 69.9711L107.887 69.2402M106.332 70.417H90.7211M117.779 74.1986L116.291 75.5504M117.779 74.1986H134.223M135.373 72.8939L136.483 71.6342M135.373 72.8939L134.223 74.1986M136.483 71.6342L137.023 71.0204L137.423 70.5669L137.555 70.417M121.944 70.417H137.555M121.944 70.417L122.92 69.5306L123.239 69.2402M134.223 74.1986L133.334 75.2078L133.033 75.5504M153.166 70.417L153.265 70.2676L153.461 69.9711L153.752 69.5306L153.944 69.2402M153.166 70.417H137.555M137.555 70.417L137.686 70.2676L137.948 69.9711L138.592 69.2402M99.5488 75.5504H116.291M99.5488 75.5504H82.8066M114.747 76.952L114.943 76.774L115.138 76.5966L115.91 75.8958L116.291 75.5504M114.747 76.952L113.551 78.0375L113.145 78.4063M114.747 76.952H131.798M116.291 75.5504H133.033M82.8066 75.5504H66.0647M82.8066 75.5504L84.3767 74.5319L84.891 74.1986M133.033 75.5504L131.798 76.952M84.891 74.1986H68.4465M113.145 78.4063L112.941 78.5919L112.735 78.7783L112.114 79.3434L111.904 79.5333L111.483 79.9162M113.145 78.4063H130.516M131.798 76.952L131.64 77.1307L130.516 78.4063M130.516 78.4063L130.353 78.5919L130.188 78.7783L130.023 78.9659L129.186 79.9162M93.7791 79.9162L91.7056 81.4852M93.7791 79.9162H111.483M93.7791 79.9162H76.0756M111.483 79.9162L109.755 81.4852M111.483 79.9162H129.186M129.186 79.9162L127.804 81.4852M91.7056 81.4852H109.755M91.7056 81.4852H73.6565M107.958 83.1167L109.755 81.4852M107.958 83.1167L106.089 84.8144M107.958 83.1167H126.366M109.755 81.4852H127.804M73.6565 81.4852H55.6074M73.6565 81.4852L76.0756 79.9162M127.804 81.4852L126.366 83.1167M76.0756 79.9162H58.3718M106.089 84.8144L104.141 86.5824M106.089 84.8144H124.871M126.366 83.1167L125.998 83.5346L124.871 84.8144M124.871 84.8144L124.294 85.4688L123.708 86.1335L123.313 86.5824M84.9695 86.5824L83.7644 87.4942L82.5341 88.4254M84.9695 86.5824H104.141M84.9695 86.5824H65.7976M104.141 86.5824L102.112 88.4254M104.141 86.5824H123.313M123.313 86.5824L121.689 88.4254M82.5341 88.4254H102.112M82.5341 88.4254H62.9565M99.9944 90.3481L102.112 88.4254M99.9944 90.3481L97.7833 92.3557M99.9944 90.3481H119.995M102.112 88.4254H121.689M62.9565 88.4254H43.3786M62.9565 88.4254L65.7976 86.5824M121.689 88.4254L119.995 90.3481M65.7976 86.5824H46.6261M97.7833 92.3557L97.2151 92.8716L95.4725 94.4543M97.7833 92.3557H118.227M119.995 90.3481L118.227 92.3557M118.227 92.3557L118 92.613L117.313 93.3933L116.378 94.4543M74.5669 94.4543L71.6653 96.6499M74.5669 94.4543H95.4725M74.5669 94.4543H53.6613M95.4725 94.4543L93.0545 96.6499M95.4725 94.4543H116.378M116.378 94.4543L114.444 96.6499M71.6653 96.6499H93.0545M71.6653 96.6499H50.2762M90.522 98.9494L92.1188 97.4997L93.0545 96.6499M90.522 98.9494L87.8666 101.36M90.522 98.9494H112.418M93.0545 96.6499H114.444M50.2762 96.6499H28.8871M50.2762 96.6499L53.6613 94.4543M114.444 96.6499L112.418 98.9494M53.6613 94.4543H32.7557M87.8666 101.36L85.0795 103.892M87.8666 101.36H110.294M112.418 98.9494L110.294 101.36M110.294 101.36L108.064 103.892M62.0953 103.892L58.5801 106.551M62.0953 103.892H85.0795M62.0953 103.892H39.1114M85.0795 103.892L82.1502 106.551M85.0795 103.892H108.064M108.064 103.892L105.72 106.551M58.5801 106.551H82.1502M58.5801 106.551H35.0102M79.0677 109.351L82.1502 106.551M79.0677 109.351L75.8195 112.3M79.0677 109.351H103.254M82.1502 106.551H105.72M35.0102 106.551H11.4404M35.0102 106.551L39.1114 103.892M105.72 106.551L103.254 109.351M39.1114 103.892H16.1272M75.8195 112.3L72.392 115.413M75.8195 112.3H100.656M103.254 109.351L100.656 112.3M100.656 112.3L97.9134 115.413M46.8703 115.413L42.5239 118.701M46.8703 115.413H72.392M46.8703 115.413H21.3485M72.392 115.413L68.7699 118.701M72.392 115.413H97.9134M97.9134 115.413L95.0159 118.701M42.5239 118.701H68.7699M42.5239 118.701H16.2778M64.9361 122.183L68.7699 118.701M64.9361 122.183L60.8717 125.873M64.9361 122.183H91.9491M68.7699 118.701H95.0159M16.2778 118.701H-9.96819M16.2778 118.701L21.3485 115.413M95.0159 118.701L91.9491 122.183M21.3485 115.413H-4.17288M60.8717 125.873L56.5551 129.793M60.8717 125.873H88.6975M91.9491 122.183L88.6975 125.873M88.6975 125.873L85.2441 129.793M27.8661 129.793L22.3545 133.964M27.8661 129.793H56.5551M27.8661 129.793H-0.822933M56.5551 129.793L51.9621 133.964M56.5551 129.793H85.2441M85.2441 129.793L81.5697 133.964M22.3545 133.964H51.9621M22.3545 133.964H-7.25305M47.0652 138.411L51.9621 133.964M47.0652 138.411L41.833 143.161M47.0652 138.411H77.6522M51.9621 133.964H81.5697M-7.25305 133.964H-36.8606M-7.25305 133.964L-0.822933 129.793M81.5697 133.964L77.6522 138.411M-0.822933 129.793H-29.5119M41.833 143.161L36.2307 148.249M41.833 143.161H73.4667M77.6522 138.411L73.4667 143.161M73.4667 143.161L68.9844 148.249M3.47668 148.249L-3.74022 153.71M3.47668 148.249H36.2307M3.47668 148.249H-29.2773M36.2307 148.249L30.2165 153.71M36.2307 148.249H68.9844M68.9844 148.249L64.1732 153.71M-3.74022 153.71H30.2165M-3.74022 153.71H-37.6969M23.7437 159.588L30.2165 153.71M23.7437 159.588L16.758 165.931M23.7437 159.588H58.995M30.2165 153.71H64.1732M-37.6969 153.71H-71.6536M-37.6969 153.71L-29.2773 148.249M64.1732 153.71L58.995 159.588M-29.2773 148.249H-62.0313M16.758 165.931L9.19549 172.798M16.758 165.931H53.4062M58.995 159.588L53.4062 165.931M53.4062 165.931L47.3565 172.798M-28.9652 172.798L-38.8214 180.256M-28.9652 172.798H9.19549M-28.9652 172.798H-67.1262M9.19549 172.798L0.982149 180.256M9.19549 172.798H47.3565M47.3565 172.798L40.7857 180.256M-38.8214 180.256H0.982149M-38.8214 180.256H-78.625M-7.97015 188.385L0.982149 180.256M-7.97015 188.385L-17.7659 197.28M-7.97015 188.385H33.6238M0.982149 180.256H40.7857M-78.625 180.256H-118.429M-78.625 180.256L-67.1262 172.798M40.7857 180.256L33.6238 188.385M-67.1262 172.798H-105.287M-17.7659 197.28L-28.5298 207.055M-17.7659 197.28H25.7874M33.6238 188.385L25.7874 197.28M25.7874 197.28L17.1759 207.055M-74.2359 207.055L-88.4962 217.846M-74.2359 207.055H-28.5298M-74.2359 207.055H-119.942M-28.5298 207.055L-40.4134 217.846M-28.5298 207.055H17.1759M17.1759 207.055L7.66907 217.846M-40.4134 217.846H-88.4962M-40.4134 217.846H7.66907M-88.4962 217.846L-127.823 217.846M-119.942 207.055L-127.823 212.167M-119.942 207.055H-127.823M35.5583 74.1986L32.5809 75.5504M35.5583 74.1986H52.0024M35.5583 74.1986H19.1142M54.5885 72.8939L57.0857 71.6342M54.5885 72.8939L52.0024 74.1986M54.5885 72.8939H70.7454M57.0857 71.6342H72.965M57.0857 71.6342L59.4986 70.417M43.8871 70.417H59.4986M43.8871 70.417L44.8695 69.9711L46.4792 69.2402M43.8871 70.417H28.2758M52.0024 74.1986L49.3228 75.5504M52.0024 74.1986H68.4465M70.7454 72.8939L72.965 71.6342M70.7454 72.8939L68.4465 74.1986M72.965 71.6342L74.5806 70.7174L75.1099 70.417M59.4986 70.417L59.7944 70.2676L61.8313 69.2402M59.4986 70.417H75.1099M68.4465 74.1986L66.0647 75.5504M90.7211 70.417L92.5354 69.2402M90.7211 70.417H75.1099M75.1099 70.417L75.8956 69.9711L77.1834 69.2402M32.5809 75.5504H49.3228M32.5809 75.5504H15.839M46.5445 76.952L49.3228 75.5504M46.5445 76.952L43.6617 78.4063M46.5445 76.952H63.5951M49.3228 75.5504H66.0647M15.839 75.5504H-0.902843M15.839 75.5504L19.1142 74.1986M66.0647 75.5504L63.5951 76.952M19.1142 74.1986H2.6701M43.6617 78.4063L42.9237 78.7783L40.6682 79.9162M43.6617 78.4063H61.0326M63.5951 76.952L61.0326 78.4063M61.0326 78.4063L58.3718 79.9162M22.9647 79.9162L22.5403 80.1092L19.5093 81.4852M22.9647 79.9162H40.6682M22.9647 79.9162H5.26127M40.6682 79.9162L37.5584 81.4852M40.6682 79.9162H58.3718M58.3718 79.9162L58.0323 80.1092L55.6074 81.4852M19.5093 81.4852H37.5584M19.5093 81.4852H1.46022M34.3245 83.1167L37.5584 81.4852M34.3245 83.1167L30.9592 84.8144M34.3245 83.1167H52.7329M37.5584 81.4852H55.6074M1.46022 81.4852H-16.5889M1.46022 81.4852L5.26127 79.9162M55.6074 81.4852L52.7329 83.1167M5.26127 79.9162H-12.4422M30.9592 84.8144L27.4542 86.5824M30.9592 84.8144H49.7415M52.7329 83.1167L49.7415 84.8144M49.7415 84.8144L46.6261 86.5824M8.28271 86.5824L4.2235 88.4254M8.28271 86.5824H27.4542M8.28271 86.5824H-10.8892M27.4542 86.5824L23.8011 88.4254M27.4542 86.5824H46.6261M46.6261 86.5824L43.3786 88.4254M4.2235 88.4254H23.8011M4.2235 88.4254H-15.3544M19.9898 90.3481L23.8011 88.4254M19.9898 90.3481L16.0098 92.3557M19.9898 90.3481H39.9907M23.8011 88.4254H43.3786M-15.3544 88.4254H-34.9319M-15.3544 88.4254L-10.8892 86.5824M43.3786 88.4254L39.9907 90.3481M-10.8892 86.5824H-30.061M16.0098 92.3557L11.8502 94.4543M16.0098 92.3557H36.4533M39.9907 90.3481L36.4533 92.3557M36.4533 92.3557L32.7557 94.4543M-9.0554 94.4543L-13.8911 96.6499M-9.0554 94.4543H11.8502M-9.0554 94.4543H-29.961M11.8502 94.4543L7.49798 96.6499M11.8502 94.4543H32.7557M32.7557 94.4543L28.8871 96.6499M-13.8911 96.6499H7.49798M-13.8911 96.6499H-35.2803M2.93953 98.9494L7.49798 96.6499M2.93953 98.9494L-1.83987 101.36M2.93953 98.9494H24.835M7.49798 96.6499H28.8871M-35.2803 96.6499H-56.6694M-35.2803 96.6499L-29.961 94.4543M28.8871 96.6499L24.835 98.9494M-29.961 94.4543H-50.8666M-1.83987 101.36L-6.85693 103.892M-1.83987 101.36H20.5867M24.835 98.9494L20.5867 101.36M20.5867 101.36L16.1272 103.892M-29.8411 103.892L-35.6996 106.551M-29.8411 103.892H-6.85693M-29.8411 103.892H-52.825M-6.85693 103.892L-12.1298 106.551M-6.85693 103.892H16.1272M16.1272 103.892L11.4404 106.551M-35.6996 106.551H-12.1298M-35.6996 106.551H-59.2698M-17.6785 109.351L-12.1298 106.551M-17.6785 109.351L-23.525 112.3M-17.6785 109.351H6.50803M-12.1298 106.551H11.4404M-59.2698 106.551H-82.8396M-59.2698 106.551L-52.825 103.892M11.4404 106.551L6.50803 109.351M-52.825 103.892H-75.8091M-23.525 112.3L-29.6946 115.413M-23.525 112.3H1.31099M6.50803 109.351L1.31099 112.3M1.31099 112.3L-4.17288 115.413M-55.2164 115.413L-62.4602 118.701M-55.2164 115.413H-29.6946M-55.2164 115.413H-80.7378M-29.6946 115.413L-36.2142 118.701M-29.6946 115.413H-4.17288M-4.17288 115.413L-9.96819 118.701M-62.4602 118.701H-36.2142M-62.4602 118.701H-88.7063M-43.1149 122.183L-36.2142 118.701M-43.1149 122.183L-50.4308 125.873M-43.1149 122.183H-16.1022M-36.2142 118.701H-9.96819M-88.7063 118.701H-114.952M-88.7063 118.701L-80.7378 115.413M-9.96819 118.701L-16.1022 122.183M-80.7378 115.413H-106.259M-50.4308 125.873L-58.2009 129.793M-50.4308 125.873H-22.6051M-16.1022 122.183L-22.6051 125.873M-22.6051 125.873L-29.5119 129.793M-86.8899 129.793L-96.0758 133.964M-86.8899 129.793H-58.2009M-86.8899 129.793H-115.579M-58.2009 129.793L-66.4682 133.964M-58.2009 129.793H-29.5119M-29.5119 129.793L-36.8606 133.964M-96.0758 133.964H-66.4682M-96.0758 133.964H-125.683M-75.2829 138.411L-66.4682 133.964M-75.2829 138.411L-84.7003 143.161M-75.2829 138.411H-44.696M-66.4682 133.964H-36.8606M-125.683 133.964L-115.579 129.793M-125.683 133.964H-127.823M-125.683 133.964L-127.823 134.847M-36.8606 133.964L-44.696 138.411M-115.579 129.793H-127.823M-84.7003 143.161L-94.785 148.249M-84.7003 143.161H-53.0671M-44.696 138.411L-53.0671 143.161M-53.0671 143.161L-62.0313 148.249M-127.539 148.249H-94.785M-127.539 148.249H-127.823M-127.539 148.249L-127.823 148.378M-94.785 148.249L-105.611 153.71M-94.785 148.249H-62.0313M-62.0313 148.249L-71.6536 153.71M-117.261 159.588L-105.611 153.71M-117.261 159.588H-82.0101M-117.261 159.588H-127.823M-117.261 159.588L-127.823 164.916M-105.611 153.71H-71.6536M-105.611 153.71H-127.823M-71.6536 153.71L-82.0101 159.588M-82.0101 159.588L-93.1872 165.931M-93.1872 165.931L-105.287 172.798M-93.1872 165.931H-127.823M-105.287 172.798L-118.429 180.256M-105.287 172.798H-127.823M-118.429 180.256H-127.823M-118.429 180.256L-127.823 185.588M-30.2185 74.1986L-34.3866 75.5504M-30.2185 74.1986H-13.774M-30.2185 74.1986H-46.6626M-10.0389 72.8939L-6.43178 71.6342M-10.0389 72.8939L-13.774 74.1986M-10.0389 72.8939H6.11804M-6.43178 71.6342H9.4475M-6.43178 71.6342L-2.94661 70.417M-18.5578 70.417H-2.94661M-18.5578 70.417L-14.9292 69.2402M-18.5578 70.417H-34.1691M-13.774 74.1986L-17.6447 75.5504M-13.774 74.1986H2.6701M6.11804 72.8939L9.4475 71.6342M6.11804 72.8939L2.6701 74.1986M9.4475 71.6342L12.6646 70.417M-2.94661 70.417L-2.51941 70.2676L0.4228 69.2402M-2.94661 70.417H12.6646M2.6701 74.1986L-0.902843 75.5504M28.2758 70.417L31.1269 69.2402M28.2758 70.417H12.6646M12.6646 70.417L13.059 70.2676L15.7748 69.2402M-34.3866 75.5504H-17.6447M-34.3866 75.5504H-51.1285M-21.6582 76.952L-17.6447 75.5504M-21.6582 76.952L-25.8222 78.4063M-21.6582 76.952H-4.60725M-17.6447 75.5504H-0.902843M-51.1285 75.5504H-67.8703M-51.1285 75.5504L-46.6626 74.1986M-0.902843 75.5504L-4.60725 76.952M-46.6626 74.1986H-63.1067M-25.8222 78.4063L-30.1457 79.9162M-25.8222 78.4063H-8.45131M-4.60725 76.952L-5.0802 77.1307L-8.45131 78.4063M-8.45131 78.4063L-12.4422 79.9162M-47.8492 79.9162L-52.687 81.4852M-47.8492 79.9162H-30.1457M-47.8492 79.9162H-65.5527M-30.1457 79.9162L-34.6379 81.4852M-30.1457 79.9162H-12.4422M-12.4422 79.9162L-16.5889 81.4852M-52.687 81.4852H-34.6379M-52.687 81.4852H-70.7361M-39.3091 83.1167L-34.6379 81.4852M-39.3091 83.1167L-44.1701 84.8144M-39.3091 83.1167H-20.9008M-34.6379 81.4852H-16.5889M-70.7361 81.4852H-88.7851M-70.7361 81.4852L-65.5527 79.9162M-16.5889 81.4852L-20.9008 83.1167M-65.5527 79.9162H-83.2562M-44.1701 84.8144L-49.2326 86.5824M-44.1701 84.8144H-25.3878M-20.9008 83.1167L-25.3878 84.8144M-25.3878 84.8144L-30.061 86.5824M-68.4044 86.5824L-74.0874 88.4254M-68.4044 86.5824H-49.2326M-68.4044 86.5824H-87.5763M-49.2326 86.5824L-54.5095 88.4254M-49.2326 86.5824H-30.061M-30.061 86.5824L-34.9319 88.4254M-74.0874 88.4254H-54.5095M-74.0874 88.4254H-93.6649M-60.0149 90.3481L-54.5095 88.4254M-60.0149 90.3481L-65.7634 92.3557M-60.0149 90.3481H-40.0135M-54.5095 88.4254H-34.9319M-93.6649 88.4254H-113.242M-93.6649 88.4254L-87.5763 86.5824M-34.9319 88.4254L-40.0135 90.3481M-87.5763 86.5824H-106.748M-65.7634 92.3557L-71.7721 94.4543M-65.7634 92.3557H-45.3202M-40.0135 90.3481L-45.3202 92.3557M-45.3202 92.3557L-50.8666 94.4543M-92.6777 94.4543L-99.4476 96.6499M-92.6777 94.4543H-71.7721M-92.6777 94.4543H-113.583M-71.7721 94.4543L-78.0585 96.6499M-71.7721 94.4543H-50.8666M-50.8666 94.4543L-56.6694 96.6499M-99.4476 96.6499H-78.0585M-84.643 98.9494L-78.0585 96.6499M-84.643 98.9494L-91.5464 101.36M-84.643 98.9494H-62.7471M-78.0585 96.6499H-56.6694M-56.6694 96.6499L-62.7471 98.9494M-113.583 94.4543H-127.823M-91.5464 101.36L-98.7933 103.892M-91.5464 101.36H-69.1198M-62.7471 98.9494L-69.1198 101.36M-69.1198 101.36L-75.8091 103.892M-121.778 103.892H-98.7933M-121.778 103.892H-127.823M-121.778 103.892L-127.823 105.852M-98.7933 103.892L-106.41 106.551M-98.7933 103.892H-75.8091M-75.8091 103.892L-82.8396 106.551M-114.424 109.351L-106.41 106.551M-114.424 109.351L-122.87 112.3M-114.424 109.351H-90.2378M-114.424 109.351H-127.823M-106.41 106.551H-82.8396M-106.41 106.551H-127.823M-82.8396 106.551L-90.2378 109.351M-127.89 105.874L-127.823 105.852M-122.87 112.3H-98.0335M-122.87 112.3H-127.823M-122.87 112.3L-127.823 114.03M-90.2378 109.351L-98.0335 112.3M-98.0335 112.3L-106.259 115.413M-106.259 115.413L-114.952 118.701M-106.259 115.413H-127.823M-124.153 122.183L-114.952 118.701M-124.153 122.183H-127.823M-124.153 122.183L-127.823 123.571M-114.952 118.701H-127.823M-95.9949 74.1986L-101.354 75.5504M-95.9949 74.1986H-79.5508M-95.9949 74.1986H-112.439M-74.6662 72.8939L-69.9493 71.6342M-74.6662 72.8939L-79.5508 74.1986M-74.6662 72.8939H-58.5093M-69.9493 71.6342H-54.07M-69.9493 71.6342L-65.3919 70.417M-81.0031 70.417H-65.3919M-81.0031 70.417L-76.3377 69.2402M-81.0031 70.417H-96.6143M-79.5508 74.1986L-84.6122 75.5504M-79.5508 74.1986H-63.1067M-58.5093 72.8939L-54.07 71.6342M-58.5093 72.8939L-63.1067 74.1986M-54.07 71.6342L-49.7806 70.417M-65.3919 70.417H-49.7806M-65.3919 70.417L-60.9854 69.2402M-63.1067 74.1986L-67.8703 75.5504M-34.1691 70.417L-30.2813 69.2402M-34.1691 70.417H-49.7806M-49.7806 70.417L-45.6333 69.2402M-101.354 75.5504H-84.6122M-101.354 75.5504H-118.096M-89.8605 76.952L-84.6122 75.5504M-89.8605 76.952L-95.3058 78.4063M-89.8605 76.952H-72.8099M-84.6122 75.5504H-67.8703M-118.096 75.5504L-112.439 74.1986M-118.096 75.5504H-127.823M-67.8703 75.5504L-72.8099 76.952M-112.439 74.1986H-127.823M-95.3058 78.4063L-100.96 79.9162M-95.3058 78.4063H-77.9349M-72.8099 76.952L-77.9349 78.4063M-77.9349 78.4063L-83.2562 79.9162M-118.663 79.9162L-124.883 81.4852M-118.663 79.9162H-100.96M-118.663 79.9162H-127.823M-100.96 79.9162L-106.834 81.4852M-100.96 79.9162H-83.2562M-83.2562 79.9162L-88.7851 81.4852M-112.943 83.1167L-106.834 81.4852M-112.943 83.1167L-119.299 84.8144M-112.943 83.1167H-94.5343M-112.943 83.1167H-127.823M-106.834 81.4852H-124.883M-106.834 81.4852H-88.7851M-124.883 81.4852L-127.823 82.2268M-124.883 81.4852H-127.823M-88.7851 81.4852L-94.5343 83.1167M-119.299 84.8144L-125.92 86.5824M-119.299 84.8144H-100.517M-119.299 84.8144H-127.823M-94.5343 83.1167L-100.517 84.8144M-100.517 84.8144L-106.748 86.5824M-125.92 86.5824H-106.748M-125.92 86.5824L-127.823 87.0908M-125.92 86.5824H-127.823M-106.748 86.5824L-113.242 88.4254M-120.018 90.3481L-113.242 88.4254M-120.018 90.3481L-127.093 92.3557M-120.018 90.3481H-127.823M-113.242 88.4254H-127.823M-127.926 88.4254H-127.823M-127.093 92.3557H-127.823M-127.093 92.3557L-127.823 92.5629M-128 92.613L-127.823 92.5629M-123.137 72.8939L-117.588 71.6342M-123.137 72.8939H-127.823M-123.137 72.8939L-127.823 73.9578M-117.588 71.6342L-112.226 70.417M-117.588 71.6342H-127.823M-96.6143 70.417L-91.6898 69.2402M-96.6143 70.417H-112.226M-112.226 70.417L-107.042 69.2402M-112.226 70.417H-127.823M414.929 69.2402H430.281M414.929 69.2402H399.577M426.521 68.1019L427.449 68.383L430.281 69.2402M426.521 68.1019H441.622M430.281 69.2402H445.633M441.622 68.1019L442.612 68.383L443.111 68.5242L445.633 69.2402M445.633 69.2402H460.985M460.985 69.2402H476.338M399.577 69.2402H384.225M476.338 69.2402H491.69M491.69 69.2402L486.926 68.1019M491.69 69.2402H507.042M486.926 68.1019H502.027M353.521 69.2402H368.873M353.521 69.2402H338.169M366.115 68.1019L366.796 68.383L367.139 68.5242L368.873 69.2402M366.115 68.1019H381.216M368.873 69.2402H384.225M381.216 68.1019L384.225 69.2402M338.169 69.2402H322.817M292.113 69.2402H307.465M292.113 69.2402H276.761M305.709 68.1019L305.926 68.242L306.143 68.383L306.361 68.5242L307.465 69.2402M305.709 68.1019H320.811M307.465 69.2402H322.817M320.811 68.1019L322.817 69.2402M276.761 69.2402H261.408M230.704 69.2402H246.056M230.704 69.2402H215.352M245.304 68.1019L246.056 69.2402M245.304 68.1019H260.406M246.056 69.2402H261.408M260.406 68.1019L260.529 68.242L260.653 68.383L260.778 68.5242L261.408 69.2402M215.352 69.2402H200M169.296 69.2402H184.648M169.296 69.2402H153.944M184.899 68.1019L184.648 69.2402M184.899 68.1019H200M184.648 69.2402H200M200 68.1019V69.2402M153.944 69.2402H138.592M107.887 69.2402H123.239M107.887 69.2402H92.5354M124.493 68.1019L124.184 68.383L123.557 68.9519L123.239 69.2402M124.493 68.1019H139.594M123.239 69.2402H138.592M139.594 68.1019L139.471 68.242L139.347 68.383L139.222 68.5242L138.592 69.2402M92.5354 69.2402H77.1834M46.4792 69.2402H61.8313M46.4792 69.2402H31.1269M64.0878 68.1019L63.5305 68.383L63.2502 68.5242L61.8313 69.2402M64.0878 68.1019H79.1892M61.8313 69.2402H77.1834M79.1892 68.1019L78.942 68.242L77.1834 69.2402M31.1269 69.2402H15.7748M-14.9292 69.2402H0.4228M-14.9292 69.2402H-30.2813M3.68225 68.1019L2.87737 68.383L2.47237 68.5242L0.4228 69.2402M3.68225 68.1019H18.7836M0.4228 69.2402H15.7748M18.7836 68.1019L18.4128 68.242L15.7748 69.2402M-30.2813 69.2402H-45.6333M-76.3377 69.2402H-60.9854M-76.3377 69.2402H-91.6898M-56.7233 68.1019L-60.9854 69.2402M-56.7233 68.1019H-41.6219M-60.9854 69.2402H-45.6333M-41.6219 68.1019L-42.6122 68.383L-43.1108 68.5242L-45.6333 69.2402M-91.6898 69.2402H-107.042M-117.129 68.1019L-122.394 69.2402M-117.129 68.1019H-102.027M-117.129 68.1019H-127.823M-122.394 69.2402H-107.042M-122.394 69.2402L-127.823 70.4142M-122.394 69.2402H-127.823M-102.027 68.1019L-103.265 68.383L-107.042 69.2402M502.027 68.1019L503.265 68.383L507.042 69.2402M507.042 69.2402H522.394M522.394 69.2402L527.823 70.4142M522.394 69.2402H527.823M527.823 123.571V122.183M527.823 123.571V125.873M527.823 122.183V118.701M527.823 125.873V126.561V129.793M527.823 129.793V133.964M527.823 96.6499V94.4543M527.823 96.6499V98.7646M527.823 68.1019V69.2402M527.823 69.2402V70.4142M527.823 70.4142L527.837 70.417H527.823M527.823 70.4142V70.417M527.823 70.417V71.6342M527.823 71.6342V72.8939M527.823 72.8939V73.9578M527.823 73.9578V74.1986M527.823 74.1986V75.5504M527.823 75.5504V76.952M527.823 76.952V77.8746M527.823 77.8746V78.4063M527.823 78.4063V79.9162M527.823 79.9162V81.4852M527.823 81.4852V82.2268M527.823 82.2268V83.1167M527.823 83.1167V84.8144M527.823 84.8144V86.5824M527.823 86.5824V87.0908M527.823 87.0908V88.4254M527.823 88.4254V90.3481M527.823 90.3481V92.3557M527.823 92.3557V92.5629M527.823 92.5629V94.4543M527.823 98.9494V101.36M527.823 98.9494V98.7646M527.823 101.36V103.892M527.823 103.892V105.852M527.823 105.852V106.551M527.823 106.551V109.351M527.823 109.351V112.3M527.823 112.3V114.03M527.823 114.03V115.413M527.823 115.413V118.701M527.823 133.964V134.847M527.823 134.847V138.411M527.823 138.411V143.161M527.823 143.161V148.249M527.823 148.249V148.378M527.823 148.378V153.71M527.823 153.71V159.588M527.823 159.588V164.916M527.823 164.916V165.931M527.823 165.931V172.798M527.823 172.798V180.256M527.823 180.256V185.588M527.823 185.588V188.385M527.823 188.385V197.28M527.823 197.28V207.055M527.823 207.055V212.167M527.823 212.167V217.846M527.823 217.846V217.884H-127.823V217.846M-127.823 98.9494V101.36M-127.823 98.9494V98.7646M-127.823 98.7646V96.6499M-127.823 96.6499V94.4543M-127.823 94.4543V92.5629M-127.823 92.5629V92.3557M-127.823 92.3557V90.3481M-127.823 90.3481V88.4254M-127.823 88.4254V87.0908M-127.823 87.0908V86.5824M-127.823 86.5824V84.8144M-127.823 84.8144V83.1167M-127.823 83.1167V82.2268M-127.823 82.2268V81.4852M-127.823 81.4852V79.9162M-127.823 79.9162V78.4063M-127.823 78.4063V77.8746M-127.823 77.8746V76.952M-127.823 76.952V75.5504M-127.823 75.5504V74.1986M-127.823 74.1986V73.9578M-127.823 73.9578V72.8939M-127.823 72.8939V71.6342M-127.823 71.6342V70.417M-127.823 70.417H-127.837L-127.823 70.4142M-127.823 70.417V70.4142M-127.823 70.4142V69.2402M-127.823 69.2402V68.1019M-127.823 217.846V212.167M-127.823 212.167V207.055M-127.823 207.055V197.281M-127.823 197.281V188.385M-127.823 188.385V185.588M-127.823 185.588V180.256M-127.823 180.256V172.798M-127.823 172.798V165.931M-127.823 165.931V164.916M-127.823 164.916V159.588M-127.823 159.588V153.71M-127.823 153.71V148.378M-127.823 148.378V148.249M-127.823 148.249V143.161M-127.823 143.161V138.411M-127.823 138.411V134.847M-127.823 134.847V133.964M-127.823 133.964V129.793M-127.823 129.793V125.873M-127.823 125.873V123.571M-127.823 123.571V122.183M-127.823 122.183V118.701M-127.823 118.701V115.413M-127.823 115.413V114.03M-127.823 114.03V112.3M-127.823 112.3V109.351M-127.823 109.351V106.551M-127.823 106.551V105.852M-127.823 105.852V103.892M-127.823 103.892V101.36" stroke="url(#paint0_radial_6791_672)" stroke-opacity="0.6" stroke-width="0.396518" stroke-miterlimit="10" stroke-linecap="round" stroke-linejoin="round"/>
<path d="M199.999 105.666C200.982 105.666 201.896 105.207 203.723 104.288L218.414 96.904C224.915 93.6367 228.165 92.003 228.165 89.416V56.916M199.999 105.666C199.015 105.666 198.102 105.207 196.274 104.288L181.583 96.904C175.082 93.6367 171.832 92.003 171.832 89.416V56.916M199.999 105.666V73.166M228.165 56.916C228.165 54.3289 224.915 52.6952 218.414 49.4278L203.723 42.044C201.895 41.1253 200.982 40.666 199.999 40.666C199.015 40.666 198.102 41.1253 196.274 42.044L181.583 49.4278C175.082 52.6952 171.832 54.3289 171.832 56.916M228.165 56.916C228.165 59.5031 224.915 61.1368 218.414 64.4042L203.723 71.7881C201.895 72.7067 200.982 73.166 199.999 73.166M171.832 56.916C171.832 59.5031 175.082 61.1368 181.583 64.4042L196.274 71.7881C198.102 72.7067 199.015 73.166 199.999 73.166" stroke="#B3B3B3" stroke-width="6.5" stroke-linejoin="round"/>
<path d="M191.335 121.917C191.335 118.925 193.76 116.5 196.751 116.5H203.251C206.243 116.5 208.668 118.925 208.668 121.917M191.335 121.917C191.335 124.908 193.76 127.333 196.751 127.333H203.251C206.243 127.333 208.668 124.908 208.668 121.917M191.335 121.917H169.668M208.668 121.917H230.335" stroke="#B3B3B3" stroke-width="6.5" stroke-linecap="round"/>
</g>
<defs>
<filter id="filter0_i_6791_672" x="0" y="-40" width="400" height="208" filterUnits="userSpaceOnUse" color-interpolation-filters="sRGB">
<feFlood flood-opacity="0" result="BackgroundImageFix"/>
<feBlend mode="normal" in="SourceGraphic" in2="BackgroundImageFix" result="shape"/>
<feColorMatrix in="SourceAlpha" type="matrix" values="0 0 0 0 0 0 0 0 0 0 0 0 0 0 0 0 0 0 127 0" result="hardAlpha"/>
<feOffset dy="-40"/>
<feGaussianBlur stdDeviation="40"/>
<feComposite in2="hardAlpha" operator="arithmetic" k2="-1" k3="1"/>
<feColorMatrix type="matrix" values="0 0 0 0 0.0627451 0 0 0 0 0.0862745 0 0 0 0 0.141176 0 0 0 1 0"/>
<feBlend mode="normal" in2="shape" result="effect1_innerShadow_6791_672"/>
</filter>
<radialGradient id="paint0_radial_6791_672" cx="0" cy="0" r="1" gradientUnits="userSpaceOnUse" gradientTransform="translate(200 212.323) rotate(-90) scale(236.189 1026.88)">
<stop stop-color="#525252"/>
<stop offset="0.489074" stop-color="#CED2DF" stop-opacity="0"/>
</radialGradient>
<clipPath id="clip0_6791_672">
<rect width="400" height="168" fill="white"/>
</clipPath>
</defs>
</svg>
