<svg width="252" height="204" viewBox="0 0 252 204" fill="none" xmlns="http://www.w3.org/2000/svg">
<path d="M251.897 -24V17.7469L238.107 3.9573V-24H237.854L237.897 -23.957V3.74625L224.108 -10.0434V-24H223.898V-10.0434L210.108 3.74625V-24H125.897V-10.0434L112.107 3.74625V-24H111.854L98.1076 -10.2534V-24H97.8976V-10.0434L84.1078 3.74625V-24H0V18.105H41.7473L27.9575 31.8946H0V32.1477L0.0430504 32.1046H27.7465L13.9567 45.8943H0V46.1043H13.9567L27.7465 59.8939H0V60.1039H27.7465L13.9567 73.8936H0V74.1036H13.7467L0 87.8512V88.1043H27.7465L13.9567 101.894H0V227.999H84.1057V200.253L97.8955 214.042V227.999H98.1055V214.042L111.895 200.253V227.956L111.852 227.999H112.105V200.043L125.895 186.253V228H210.106V214.043L210.149 214L210.106 213.957V200.254L223.895 214.043V228H224.105V214.253L237.852 228H238.105V200.254L251.895 214.043V228H252V101.895H210.253L224.042 88.1054H251.999V87.8523L251.956 87.8953H224.252L238.042 74.1057H251.999V73.8957H238.042L224.252 60.106H251.999V59.896H224.252L238.042 46.1064H251.999V45.8964H238.252L251.999 32.1498V31.8967H224.252L238.042 18.1071H251.999V-24H251.894H251.897ZM224.002 -9.85125L237.896 4.0434V17.895H210.106V4.0434L224 -9.85125H224.002ZM238.106 4.2534L251.748 17.895H238.106V4.2534ZM154.045 213.895L140.255 200.106H167.958L181.748 213.895H154.045ZM98.2546 185.895L112.044 172.105H139.958L153.748 185.895H98.2546ZM69.9568 213.895H42.2534L56.0432 200.106H83.7466L69.9568 213.895ZM14.1048 130.043L27.8945 116.254V143.957L14.1048 157.747V130.043ZM41.7462 102.105L28.1045 115.747V102.105H41.7462ZM42.1054 73.9566V46.0434L55.8951 32.2537V87.9573L42.1054 101.747V74.0437L42.1484 74.0007L42.1054 73.9576V73.9566ZM83.7477 3.89535H56.0442L42.2545 -9.8943H69.9579L83.7477 3.89535ZM140.045 -9.8943H167.748L153.959 3.89535H126.255L140.045 -9.8943ZM209.959 116.106L223.748 129.895H196.045L182.255 116.106H209.959ZM195.854 130L181.959 143.895H168.107V116.105H181.959L195.854 129.999V130ZM209.898 200.044V213.747L182.256 186.106H209.898V199.958L209.855 200.001L209.898 200.044ZM154.046 185.895L140.151 172L154.046 158.106H167.897V185.896H154.046V185.895ZM139.959 171.895H112.255L126.045 158.106H153.749L139.959 171.895ZM28.0447 199.896L14.2549 186.106H69.7479L55.9581 199.896H28.0447ZM41.8964 158.254V185.895H14.2549L41.8964 158.254ZM126.106 4.2534L139.748 17.895H126.106V4.2534ZM181.958 4.10535L195.748 17.895H140.255L154.045 4.10535H181.958ZM209.897 46.0434V73.9566L196.107 87.7462V32.0427L209.897 18.253V45.9562L209.854 45.9993L209.897 46.0424V46.0434ZM154.255 157.895L167.896 144.253V157.895H154.255ZM98.2546 157.895L112.044 144.105H126.106H167.748L153.959 157.895H98.2546ZM70.1059 185.895V172.253L83.7477 185.895H70.1059ZM83.8957 186.105V199.747L70.254 186.105H83.8957ZM69.8959 185.895H42.1054V172.043L56.0001 158.149L69.8949 172.043V185.895H69.8959ZM70.1059 46.0434L83.8957 32.2537V59.895V87.7462L70.1059 73.9566V46.0434ZM98.0015 18.148L98.0446 18.105H139.958L153.748 31.8946H98.0435L84.2538 18.105H97.9574L98.0005 18.148H98.0015ZM182.107 101.746V74.0427L195.897 60.253V87.9562L182.107 101.746ZM55.8962 157.956L42.1064 171.745V116.252L55.8962 130.041V157.954V157.956ZM55.7481 102.104L42.1064 115.746V102.104H55.7481ZM42.1505 115.999L55.8972 102.252V129.745L42.1505 115.999ZM84.1078 101.894V74.2527L97.8976 88.0423V115.956L84.1078 129.745V101.894ZM97.7495 31.8936H84.1078V18.252L97.7495 31.8936ZM84.1078 32.1036H97.9595L111.854 45.9983L97.9595 59.8929H84.1078V32.1025V32.1036ZM181.898 73.9555L168.109 87.7452V46.0424L168.152 45.9993L168.109 45.9562V32.2527L181.898 46.0424V73.9555ZM181.898 101.746L168.152 87.9993L181.898 74.2527V101.746ZM167.898 143.746L154.109 129.956V74.2527L167.855 87.9993L167.898 88.0423V101.894V143.745V143.746ZM112.046 46.1043H139.96L153.75 59.8939H140.047L140.004 59.8509L139.961 59.8939H125.899H98.2577L112.047 46.1043H112.046ZM153.899 101.746L140.109 87.9562V60.253L153.899 74.0427V101.746ZM112.108 74.0427L125.898 60.253V73.9555L125.855 73.9986L125.898 74.0416V101.998V115.954L112.108 129.744V74.0406V74.0427ZM125.75 60.1039L112.108 73.7455V60.1039H125.75ZM125.898 116.253V143.894H98.2567L125.898 116.253ZM126.108 60.1039H139.75L126.108 73.7455V60.1039ZM139.898 60.252V87.7452L126.151 73.9986L139.898 60.252ZM140.257 60.1039H153.96L154.003 60.147L154.046 60.1039H167.897V87.7452L140.256 60.1039H140.257ZM154.257 59.8939L167.898 46.2523V59.8939H154.257ZM154.003 59.8509L140.256 46.1043H167.749L154.003 59.8509ZM111.897 60.1039V73.9555L98.0026 87.8502L84.1078 73.9555V60.1039H111.898H111.897ZM98.1076 88.0423L111.897 74.2527V101.956L98.1076 115.746V88.0423ZM111.897 102.252V129.955L98.1076 143.745V116.042L111.897 102.252ZM97.8976 143.745L84.1508 129.998L97.8976 116.252V143.745ZM97.7495 143.893H84.1078V130.251L97.7495 143.893ZM126.108 101.998V74.2516L139.898 88.0413V115.954L126.108 129.744V101.998ZM140.108 88.2513L153.898 102.041V129.744L140.108 115.954V88.2513ZM167.898 18.1029V45.7441L140.257 18.1029H167.898ZM167.75 45.8932H140.047L126.257 32.1036H153.961L167.75 45.8932ZM125.96 32.1036L139.75 45.8932H112.046L98.2567 32.1036H125.96ZM126.108 130.042L140.003 116.148L153.898 130.042V143.894H126.107V130.042H126.108ZM154.109 130.252L167.75 143.894H154.109V130.252ZM168.109 88.2523L181.75 101.894H168.109V88.2523ZM195.899 59.9548L182.109 73.7445V46.0413L195.899 32.2516V59.9548ZM182.004 45.8502L168.11 31.9555V18.1039H195.9V31.9555L182.005 45.8502H182.004ZM83.8988 31.7455L70.2571 18.1039H83.8988V31.7455ZM70.1091 18.253L83.8558 31.9996L70.1091 45.7462V18.253ZM56.1093 157.956V130.252L69.8991 144.042V171.745L56.1093 157.956ZM69.8991 143.746L56.1093 129.956V102.253L69.8991 116.043V143.746ZM56.2574 102.104H83.8988V129.745L56.2574 102.104ZM97.9606 144.104L98.0036 144.147L98.0467 144.104H111.749L84.1078 171.745V144.104H97.9595H97.9606ZM182.258 101.894L209.9 74.2527V101.894H182.258ZM196.11 31.7455V18.1039H209.752L196.11 31.7455ZM140.005 17.8509L126.258 4.1043H153.752L140.005 17.8509ZM70.2582 17.8939L83.8999 4.25235V17.8939H70.2582ZM70.0051 17.8509L56.2584 4.1043H83.7518L70.0051 17.8509ZM69.7521 18.1039L42.1106 45.7452V18.1039H69.7521ZM69.9001 18.252V45.9552L56.1104 59.7449V32.0416L69.9001 18.252ZM56.1104 60.042L69.9001 46.2523V73.9555L56.1104 87.7452V60.042ZM70.0051 74.1466L83.8999 88.0413V101.893H56.1093V88.0413L70.0041 74.1466H70.0051ZM55.9004 101.893H42.2587L55.9004 88.2513V101.893ZM70.0051 186.146L83.7518 199.893H56.2584L70.0051 186.146ZM70.1101 171.954V116.252L83.8568 129.998L83.8999 130.041V144.103V171.954L83.8568 171.997L83.8999 172.04V185.744L70.1101 171.954ZM84.259 171.892L98.0488 158.103H125.752L111.962 171.892H84.259ZM111.752 172.102L98.0057 185.849L84.259 172.102H111.752ZM168.112 185.892V158.251L195.753 185.892H168.112ZM168.26 158.102H195.963L209.753 171.891H182.049L168.26 158.102ZM168.26 157.891L182.006 144.145L195.753 157.891H168.26ZM168.112 157.743V144.102H181.753L168.112 157.743ZM168.112 115.891V102.25L181.753 115.891H168.112ZM209.897 -10.1054H196.255L209.897 -23.747V-10.1054ZM209.897 -9.89535V17.895H196.045L182.15 4.00035L196.045 -9.8943H209.897V-9.89535ZM181.958 3.8943H154.255L168.044 -9.89535H195.748L181.958 3.8943ZM84.1057 17.8939V4.25235L97.7474 17.8939H84.1057ZM41.9573 -9.89535L55.7471 3.8943H28.0436L14.2539 -9.89535H41.9573ZM28.0436 4.1043H55.9571L69.7468 17.8939H14.2539L28.0436 4.1043ZM41.8953 102.253V115.957L41.8523 116L41.8953 116.043V157.956L28.1056 171.745V116.042L41.8953 102.252V102.253ZM27.8956 144.253V171.956L14.1058 185.746V158.043L27.8956 144.253ZM13.8958 185.746L0.148051 172L13.8948 158.254V185.747L13.8958 185.746ZM27.8525 200L13.9578 213.894H0.105001V186.104H13.9567L27.8515 199.999L27.8525 200ZM28.0447 200.105H55.7481L41.9584 213.894H14.2539L28.0436 200.105H28.0447ZM84.1068 172.253L97.7485 185.895H84.1068V172.253ZM126.107 186.253L139.749 199.895H126.107V186.253ZM126.255 186.105H167.897H181.959L195.749 199.895H140.046L126.256 186.105H126.255ZM168.256 200.105H195.959L209.749 213.894H182.045L168.256 200.105ZM209.749 214.104L196.002 227.851L182.255 214.104H209.749ZM224.046 185.894L224.003 185.851L223.96 185.894H196.046L182.256 172.104H237.96L251.75 185.894H224.047H224.046ZM210.046 171.894L196.256 158.105H223.96L237.749 171.894H210.046ZM223.96 157.895H196.046L182.256 144.105H237.749L223.96 157.895ZM182.256 143.895L196.046 130.105H223.96L237.749 143.895H182.255H182.256ZM224.257 130.105H251.75L238.003 143.852L224.257 130.105ZM224.047 129.895L210.257 116.106H237.96L251.75 129.895H224.047ZM182.046 115.896L168.257 102.106H181.96L182.003 102.149L182.046 102.106H223.96L237.749 115.896H182.046ZM195.96 -10.1043H140.256L154.045 -23.895H209.749L195.959 -10.1054L195.96 -10.1043ZM153.748 -23.895L126.106 3.74625V-23.895H153.748ZM125.896 3.95625L125.853 3.9993L125.896 4.04235V17.8939H98.2546L125.896 -9.7473V3.95625ZM111.896 -23.747V3.95625L98.1065 17.7459V-9.95625L111.896 -23.747ZM97.8965 -9.7473V17.7459L84.1498 3.9993L97.8965 -9.7473ZM83.8957 -23.895V3.74625L56.2542 -23.895H83.8957ZM55.9571 -23.895L69.7468 -10.1054H14.0439L0.253052 -23.895H55.956H55.9571ZM13.7467 -10.1054H0.105001V-23.747L13.7467 -10.1054ZM0.105001 -9.89535H13.9567L27.8515 3.9993L13.9567 17.8939H0.105001V-9.89535ZM41.8953 18.253V31.8946H28.2536L41.8953 18.253ZM28.0436 32.1046H41.8953V59.895H28.0436L28.0006 59.852L14.1489 46.0003L28.0436 32.1057V32.1046ZM41.8953 60.105V73.7466L28.2536 60.105H41.8953ZM28.0006 60.148L41.7473 73.8946H14.2539L28.0006 60.148ZM0.253052 87.8953L14.0428 74.1057H41.7462L27.9565 87.8953H0.253052ZM41.8953 74.2537V101.895H14.2539L41.8953 74.2537ZM27.8956 102.105V115.957L14.0008 129.851L0.105001 115.957V102.105H27.8956ZM0.105001 116.254L13.8948 130.043V157.957L0.105001 171.746V116.253V116.254ZM13.7467 185.895H0.105001V172.253L13.7467 185.895ZM0.105001 214.105H13.7467L0.105001 227.747V214.105ZM14.0439 214.105H69.7468L55.9571 227.895H0.253052L14.0428 214.105H14.0439ZM56.2542 227.895L83.8957 200.254V227.895H56.2542ZM98.0015 213.851L84.1498 200L84.1068 199.957V186.105H97.9585L98.0015 186.148L98.0446 186.105H111.896V199.957L98.0015 213.851ZM112.106 186.105H125.748L112.106 199.747V186.105ZM126.106 200.105H139.958L153.853 213.999L139.958 227.894H126.106V200.104V200.105ZM140.255 227.895L154.045 214.105H181.958L195.748 227.895H140.254H140.255ZM196.255 227.895L209.897 214.253V227.895H196.255ZM210.107 186.105H223.748L210.107 199.747V186.105ZM210.15 200L223.897 186.253V213.746L210.15 200ZM237.896 227.746L224.107 213.956V186.253L237.896 200.043V227.746ZM251.896 213.746L224.255 186.105H251.896V213.746ZM251.896 185.747L238.254 172.105H251.896V185.747ZM238.044 171.895L224.15 158.001L238.044 144.106H251.896V171.896H238.044V171.895ZM251.896 143.895H238.254L251.896 130.253V143.895ZM224.255 102.105H251.896V129.746L224.255 102.105ZM210.106 101.746V88.1043H223.747L210.106 101.746ZM223.957 87.8943H210.106V60.1039H223.957L224 60.147L237.852 73.9986L223.957 87.8932V87.8943ZM210.106 59.8939V46.2523L223.747 59.8939H210.106ZM224 59.8509L210.254 46.1043H237.747L224 59.8509ZM251.747 32.1046L237.957 45.8943H210.254L224.044 32.1046H251.747ZM210.105 45.7462V18.105H237.746L210.105 45.7462Z" fill="url(#paint0_radial_6805_669)"/>
<defs>
<radialGradient id="paint0_radial_6805_669" cx="0" cy="0" r="1" gradientUnits="userSpaceOnUse" gradientTransform="translate(122.269 102) scale(123.393 123.392)">
<stop stop-color="#00835C"/>
<stop offset="1" stop-color="#2D354A" stop-opacity="0.1"/>
</radialGradient>
</defs>
</svg>
