<svg width="40" height="40" viewBox="0 0 40 40" fill="none" xmlns="http://www.w3.org/2000/svg">
<path d="M6.66797 26.6673C6.66797 19.3035 12.6375 13.334 20.0013 13.334C27.3651 13.334 33.3346 19.3035 33.3346 26.6673V30.3037C33.3346 31.5712 33.3346 32.2048 33.2203 32.7302C32.8043 34.643 31.3103 36.137 29.3975 36.553C28.8721 36.6673 28.2385 36.6673 26.971 36.6673H13.0316C11.7642 36.6673 11.1304 36.6673 10.6051 36.553C8.69237 36.137 7.19834 34.643 6.78224 32.7302C6.66797 32.2048 6.66797 31.5712 6.66797 30.3037V26.6673Z" stroke="#ADB5C5" stroke-width="2.5" stroke-linecap="round" stroke-linejoin="round"/>
<path d="M20 13.334V8.33398" stroke="#ADB5C5" stroke-width="2.5" stroke-linecap="round" stroke-linejoin="round"/>
<path d="M20 8.33398C21.3807 8.33398 22.5 7.2147 22.5 5.83398C22.5 4.45327 21.3807 3.33398 20 3.33398C18.6193 3.33398 17.5 4.45327 17.5 5.83398C17.5 7.2147 18.6193 8.33398 20 8.33398Z" stroke="#ADB5C5" stroke-width="2.5" stroke-linecap="round" stroke-linejoin="round"/>
<path d="M15 21.666V23.3327M25 21.666V23.3327" stroke="#ADB5C5" stroke-width="2.5" stroke-linecap="round" stroke-linejoin="round"/>
<path d="M6.66797 30.834H13.499C14.4376 30.834 15.314 30.365 15.8346 29.584C16.3553 28.803 17.2318 28.334 18.1703 28.334H21.8323C22.7708 28.334 23.6473 28.803 24.168 29.584C24.6886 30.365 25.5651 30.834 26.5036 30.834H33.3346" stroke="#ADB5C5" stroke-width="2.5" stroke-linecap="round" stroke-linejoin="round"/>
</svg>
