<svg width="40" height="40" viewBox="0 0 40 40" fill="none" xmlns="http://www.w3.org/2000/svg">
<path d="M18.5138 9.29308C18.95 10.0445 19.168 10.4201 19.168 10.8327C19.168 11.2452 18.95 11.6209 18.5138 12.3723L16.4314 15.9597C15.9952 16.7112 15.7772 17.0868 15.418 17.293C15.0588 17.4993 14.6226 17.4993 13.7504 17.4993H9.58558C8.7133 17.4993 8.27715 17.4993 7.91797 17.293C7.55879 17.0868 7.3407 16.7112 6.90457 15.9597L4.82219 12.3723C4.38604 11.6209 4.16797 11.2452 4.16797 10.8327C4.16797 10.4201 4.38604 10.0445 4.82219 9.29308L6.90457 5.70562C7.3407 4.95423 7.55879 4.57855 7.91797 4.37228C8.27715 4.16602 8.7133 4.16602 9.58558 4.16602H13.7504C14.6226 4.16602 15.0588 4.16602 15.418 4.37228C15.7772 4.57855 15.9952 4.95423 16.4314 5.70562L18.5138 9.29308Z" stroke="#ADB5C5" stroke-width="2.5" stroke-linecap="round" stroke-linejoin="round"/>
<path d="M35.1779 19.293C35.614 20.0445 35.832 20.4202 35.832 20.8327C35.832 21.2452 35.614 21.6208 35.1779 22.3723L33.0954 25.9597C32.6594 26.7112 32.4412 27.0868 32.082 27.293C31.7229 27.4993 31.2867 27.4993 30.4144 27.4993H26.2497C25.3774 27.4993 24.9412 27.4993 24.582 27.293C24.2229 27.0868 24.0047 26.7112 23.5687 25.9597L21.4862 22.3723C21.05 21.6208 20.832 21.2452 20.832 20.8327C20.832 20.4202 21.05 20.0445 21.4862 19.293L23.5687 15.7056C24.0047 14.9542 24.2229 14.5785 24.582 14.3723C24.9412 14.166 25.3774 14.166 26.2497 14.166H30.4144C31.2867 14.166 31.7229 14.166 32.082 14.3723C32.4412 14.5785 32.6594 14.9542 33.0954 15.7056L35.1779 19.293Z" stroke="#ADB5C5" stroke-width="2.5" stroke-linecap="round" stroke-linejoin="round"/>
<path d="M18.5138 27.627C18.95 28.3785 19.168 28.7542 19.168 29.1667C19.168 29.5792 18.95 29.9548 18.5138 30.7063L16.4314 34.2937C15.9952 35.0452 15.7772 35.4208 15.418 35.627C15.0588 35.8333 14.6226 35.8333 13.7504 35.8333H9.58558C8.7133 35.8333 8.27715 35.8333 7.91797 35.627C7.55879 35.4208 7.3407 35.0452 6.90457 34.2937L4.82219 30.7063C4.38604 29.9548 4.16797 29.5792 4.16797 29.1667C4.16797 28.7542 4.38604 28.3785 4.82219 27.627L6.90457 24.0397C7.3407 23.2882 7.55879 22.9125 7.91797 22.7063C8.27715 22.5 8.7133 22.5 9.58558 22.5H13.7504C14.6226 22.5 15.0588 22.5 15.418 22.7063C15.7772 22.9125 15.9952 23.2882 16.4314 24.0397L18.5138 27.627Z" stroke="#ADB5C5" stroke-width="2.5" stroke-linecap="round" stroke-linejoin="round"/>
</svg>
